<svg width="58" height="45" viewBox="0 0 58 45" xmlns="http://www.w3.org/2000/svg" xmlns:xlink="http://www.w3.org/1999/xlink"><title>Group 5</title><desc>Created with Sketch.</desc><defs><path d="M54.316 32.498c.448 0 .864-.363.925-.807 0 0 .087-.623.087-1.365s-.086-1.366-.086-1.366c-.06-.446-.476-.81-.924-.81h-2.312c-.447 0-.912-.285-1.033-.634-.12-.35-.285-1.47.032-1.786l1.634-1.637c.317-.317.34-.858.055-1.202l-1.922-1.926c-.344-.287-.884-.262-1.2.055l-1.636 1.635c-.316.317-.843.445-1.17.284-.33-.16-1.248-.84-1.248-1.288v-2.316c0-.448-.362-.865-.806-.926 0 0-.623-.086-1.364-.086-.74 0-1.364.086-1.364.086-.444.06-.807.478-.807.926v2.316c0 .448-.285.914-.634 1.034-.35.12-1.468.287-1.785-.03L37.12 21.02c-.316-.318-.856-.343-1.2-.056l-1.923 1.926c-.287.345-.262.886.054 1.203l1.635 1.637c.317.317.445.845.284 1.173-.162.328-.84 1.248-1.287 1.248H32.37c-.446 0-.862.364-.923.808 0 0-.086.624-.086 1.366 0 .743.087 1.367.087 1.367.06.445.477.808.924.808h2.314c.447 0 .912.285 1.032.635.12.35.286 1.47-.03 1.786l-1.635 1.636c-.315.317-.34.858-.053 1.202l1.923 1.926c.344.288.884.263 1.2-.054l1.635-1.637c.317-.316.844-.444 1.172-.283.328.16 1.246.84 1.246 1.287v2.315c0 .45.363.865.807.926 0 0 .623.086 1.364.086.74 0 1.364-.086 1.364-.086.444-.06.806-.477.806-.926v-2.315c0-.448.286-.914.635-1.035.348-.12 1.466-.286 1.783.03l1.634 1.638c.316.317.857.34 1.2.054l1.924-1.925c.287-.346.263-.886-.054-1.204l-1.634-1.636c-.317-.317-.444-.845-.284-1.174.16-.328.838-1.248 1.286-1.248h2.312zm-10.972 2.22c-2.423 0-4.386-1.967-4.386-4.394 0-2.425 1.963-4.392 4.386-4.392 2.422 0 4.386 1.966 4.386 4.392s-1.964 4.393-4.386 4.393z" id="a"/><mask id="b" x="-2" y="-2" width="27.966" height="28"><path fill="#fff" d="M29.36 16.324h27.967v28H29.36z"/><use xlink:href="#a"/></mask></defs><g fill="none" fill-rule="evenodd"><g><g><path d="M17.026 20.374l-.323-.172-14.176-7.586-.186-.1c-.126-.05-.265-.082-.415-.082-.572 0-1.037.44-1.037.982v15.676c0 .8.45 1.5 1.123 1.887l.016.008 14.447 7.91v-.002c.157.09.342.144.54.144.57 0 1.036-.44 1.036-.983V22.202c0-.76-.406-1.43-1.024-1.828" fill="#0674AC"/><path d="M37.526 30.755c-.1.083-.208.158-.322.224l-.02.01-14.445 7.906c-.016.01-.03.018-.045.024-.146.075-.315.12-.493.12-.576 0-1.04-.44-1.04-.983V22.202c0-.76.406-1.43 1.026-1.828l.004-.003.32-.17 14.174-7.584.187-.1c.126-.05.266-.082.413-.082.573 0 1.038.44 1.038.982v15.686c-.348.5-.62 1.056-.798 1.653z" fill="#0674AC"/><path d="M35.757 9.164c0-.328-.17-.62-.43-.796l-.175-.097L20.957.45l-.367-.2c-.3-.135-.632-.208-.986-.208-.352 0-.686.073-.984.207l-.368.2-14.2 7.827-.16.088c-.262.176-.437.47-.437.802 0 .33.175.623.438.8l.183.096 14.262 7.633.24.13c.31.143.66.223 1.026.223.377 0 .73-.08 1.043-.23l.21-.112 14.287-7.646.17-.09c.266-.177.443-.47.443-.804z" fill="#0674AC"/><g transform="translate(-372 -436) translate(372 436)"><use fill="#0674AC" xlink:href="#a"/><use stroke="#fff" mask="url(#b)" stroke-width="4" xlink:href="#a"/></g></g></g></g></svg>