<?xml version="1.0" encoding="utf-8"?>
<!-- Generator: Adobe Illustrator 19.1.0, SVG Export Plug-In . SVG Version: 6.00 Build 0)  -->
<svg version="1.1" id="Слой_1" xmlns="http://www.w3.org/2000/svg" xmlns:xlink="http://www.w3.org/1999/xlink" x="0px" y="0px"
	 viewBox="0 0 195.6 73.7" style="enable-background:new 0 0 195.6 73.7;" xml:space="preserve">
<style type="text/css">
	.st0{fill:none;}
	.st1{fill:#FFFFFF;}
</style>
<g id="logo">
	<rect x="-36.9" y="-18.4" class="st0" width="269.3" height="110.6"/>
	<g>
		<g>
			<path class="st1" d="M154.9,30.1c-8.3,0-13.5,6.3-13.5,13.9c0,6.5,3.8,13.8,13.5,13.8c8.8,0,11.3-5.6,12.3-8.8c0,0-3.5,0-4.6,0
				c-1.1,0-1.8,0.4-2.5,1.3c-0.3,0.3-1.8,2.1-4.9,2.1c-6.3,0-6.4-5-6.5-6.7h19C168.2,38.1,164.2,30.1,154.9,30.1z M148.7,41.1
				c0-0.5,0.4-5.6,6-5.6c3.7,0,5.1,2.1,5.8,5.6H148.7z"/>
			<path class="st1" d="M172.1,20.9v29.7c0.1,5,1,6.7,7.2,6.7l0-30.5C179.3,21.8,178.3,20.9,172.1,20.9z"/>
			<path class="st1" d="M186.1,20.9v29.7c0.1,5,1,6.7,7.2,6.7l0-30.5C193.3,21.8,192.3,20.9,186.1,20.9z"/>
			<path class="st1" d="M133.5,47.1c0,0-1.6-0.1-2.3,1.7c-0.9,2.5-2.5,3.7-5.3,3.7c-4.4,0-6-4.1-6-8.4c0-4,1.7-8.5,6.2-8.5
				c2.8,0,4.3,1.2,4.9,2.9c0.3,0.9,0.9,1.7,2.5,1.7c0.8,0,5.1,0,5.1,0c-0.4-6.8-6.2-10-12.4-10c-9.1,0-13.4,6.6-13.4,14.2
				c0,8.6,5.9,13.5,13.3,13.5c6.4,0,11.7-3.2,12.7-10.7L133.5,47.1L133.5,47.1z"/>
			<path class="st1" d="M80.5,57.3h8V45.5l4.6-4.6c0,0,4.4,6.6,7.4,11.1c3,4.5,4.4,5.3,9.7,5.3h3.9l-15.6-22l14.2-14.4
				c0,0-0.1,0-3.9,0c-3.8,0-6.2,0.1-9.2,3.3C96.5,27.3,88.4,36,88.4,36v-8c0-5.3-0.9-7.1-8-7.1L80.5,57.3L80.5,57.3z"/>
		</g>
	</g>
	<g>
		<g>
			<path id="SVGID_1_" class="st1" d="M62.7,6.8C60.2,4.7,56.5,3.5,52.1,3c-9.6-0.9-22.4,2-32.6,7.6c-3.4,1.9-6.5,4.1-9.1,6.6
				c1.5,0.4,3.1,0.8,4.7,1.2C35.4,22.1,52.6,19.1,62.7,6.8z M50.4,30.2c-12.4-4.6-31.1-7-43.1-9.7c-2,2.5-3.5,5.2-4.3,8.1
				c-0.5,1.9-0.8,3.9-0.7,6c0.1,1.6,0.7,4,1.8,6.6C9.5,49.7,33.8,41.4,50.4,30.2z M67.5,17.7C66,21.1,62.9,25,58.8,29
				c3.3,1.5,5.8,3.4,7.4,5.8c0.6-2.4,1-4.9,1.3-7.2C67.9,24.1,67.9,20.8,67.5,17.7z M29.6,21.9c9.2,1.6,18,3,24.9,5.3
				c6.7-5.1,11.4-10.6,11.7-15.1c-0.1-0.3-0.2-0.6-0.3-0.9c-0.3-0.7-0.7-1.4-1-2c-0.3-0.5-0.6-0.9-1-1.4
				C55.2,18.7,42.8,22.2,29.6,21.9z M18,62.1c0.6,0.6,1.2,1.2,1.8,1.7c3,2.7,6.2,4.9,9.5,6.1c3.2,1.2,6.6,1.5,9.9,0.4
				c3.8-1.2,7.4-3.4,10.7-6.4c0.8-0.7,1.5-1.4,2.2-2.2c3.2-3.3,6-7.4,8.3-11.7C52.7,59.3,32.4,68.3,18,62.1z M55.2,32.3
				C42,43.5,22,53.7,8.7,50.2c0.2,0.4,0.5,0.8,0.7,1.1l0-0.1c13,21,49.3,5,53.4-8.3C63.8,38.5,60.6,35,55.2,32.3z"/>
		</g>
	</g>
</g>
</svg>
