<?xml version="1.0" encoding="UTF-8" standalone="no"?>
<svg width="160px" height="36px" viewBox="0 0 160 36" version="1.1" xmlns="http://www.w3.org/2000/svg" xmlns:xlink="http://www.w3.org/1999/xlink">
    <!-- Generator: Sketch 40.1 (33804) - http://www.bohemiancoding.com/sketch -->
    <title>Group 5</title>
    <desc>Created with Sketch.</desc>
    <defs></defs>
    <g id="Page-1" stroke="none" stroke-width="1" fill="none" fill-rule="evenodd">
        <g id="ATT-IoT-Platform---System-Integrators" transform="translate(-160.000000, -521.000000)" fill="#EF3C6B">
            <g id="Group-5" transform="translate(160.000000, 521.000000)">
                <path d="M34.3240223,19.0732919 L34.3240223,12.5440994 L37.6759777,12.5440994 L37.6759777,8.36273292 L34.3240223,8.36273292 L34.3240223,3.66708075 L29.5642458,3.66708075 L29.5642458,8.36273292 L27.3296089,8.36273292 L27.3296089,12.5440994 L29.5642458,12.5440994 L29.5642458,19.0285714 C29.5642458,24.0819876 32.4469274,27.3465839 37.877095,26.7652174 L37.877095,22.4720497 C35.5083799,22.6062112 34.3240223,21.6447205 34.3240223,19.0732919" id="Shape"></path>
                <rect id="Rectangle-path" x="20.5139665" y="8.36273292" width="4.75977654" height="18.447205"></rect>
                <path d="M9.60893855,22.9416149 C6.97206704,22.9416149 4.84916201,20.5490683 4.84916201,17.642236 C4.84916201,14.668323 6.97206704,12.2310559 9.60893855,12.2310559 C11.3296089,12.2310559 12.8044693,13.3043478 13.452514,14.5565217 L18.5251397,14.5565217 C17.7206704,11.4484472 15.6201117,9.25714286 12.7597765,8.36273292 C13.4301676,7.37888199 13.8547486,5.97018634 13.877095,5.90310559 L13.9664804,5.59006211 L13.6312849,5.59006211 C13.5418994,5.59006211 11.3072626,5.61242236 10.2346369,6.26086957 C10.1675978,5.92546584 10.0111732,5.59006211 9.76536313,5.25465839 C8.46927374,3.51055901 4.33519553,2.25838509 4.15642458,2.19130435 L3.84357542,2.10186335 L3.84357542,2.43726708 C3.84357542,2.61614907 3.88826816,6.90931677 5.18435754,8.65341615 C5.22905028,8.72049689 5.29608939,8.78757764 5.34078212,8.85465839 C2.07821229,10.4198758 0,13.773913 0,17.6198758 C0,22.9639752 4,27.2571429 9.58659218,27.2571429 C14.0782123,27.2571429 17.4748603,24.7751553 18.547486,20.5937888 L13.4748603,20.5937888 C12.8715084,21.868323 11.3743017,22.9416149 9.60893855,22.9416149" id="Shape"></path>
                <path d="M44.6480447,10.173913 L44.6480447,8.34037267 L40.1117318,8.34037267 L40.1117318,26.7875776 L44.849162,26.7875776 L44.849162,17.731677 C44.849162,16.2559006 45.027933,14.757764 46.0335196,13.7291925 C47.1061453,12.5888199 48.6927374,12.3652174 50.6145251,12.5888199 L50.6145251,8.00496894 C48.3798883,7.64720497 46.1452514,8.31801242 44.6480447,10.173913" id="Shape"></path>
                <path d="M22.9050279,0.760248447 C21.273743,0.760248447 19.9776536,2.07950311 19.9776536,3.68944099 C19.9776536,5.29937888 21.2960894,6.61863354 22.9050279,6.61863354 C24.5363128,6.61863354 25.8547486,5.29937888 25.8547486,3.68944099 C25.8324022,2.05714286 24.5139665,0.760248447 22.9050279,0.760248447" id="Shape"></path>
                <path d="M80.0893855,15.2273292 C77.7877095,14.8695652 76.424581,14.5565217 76.424581,13.5726708 C76.424581,12.9018634 77.3184358,12.0968944 79.5307263,12.0968944 C81.2960894,12.0968944 82.3463687,12.7677019 82.6368715,13.6397516 L87.575419,13.6397516 C86.972067,10.173913 83.7988827,7.87080745 79.5530726,7.87080745 C74.1899441,7.87080745 71.6424581,10.889441 71.6424581,13.773913 C71.6424581,17.8881988 76.0670391,18.7826087 79.3743017,19.2968944 C82.6145251,19.7888199 83.2625698,20.2360248 83.2625698,21.2645963 C83.2625698,22.3378882 81.8324022,22.9192547 79.9106145,22.9192547 C78.5027933,22.9192547 76.603352,22.3378882 75.9553073,20.7726708 L71.1284916,20.7726708 C71.7094972,24.752795 75.1955307,27.2124224 79.9106145,27.2124224 C84.6703911,27.2124224 88.0446927,24.6409938 88.0446927,20.973913 C88.0223464,16.9937888 84.7150838,15.9875776 80.0893855,15.2273292" id="Shape"></path>
                <path d="M159.821229,17.731677 L155.039106,19.4086957 C154.793296,21.063354 153.564246,22.2037267 152.067039,22.7403727 C149.96648,23.4782609 147.798883,22.7627329 146.458101,20.8397516 L159.664804,16.1888199 C157.854749,9.07826087 152.156425,6.59627329 146.994413,8.40745342 C142.078212,10.1515528 139.50838,15.6745342 141.296089,20.7279503 C143.083799,25.7590062 148.558659,28.3975155 153.497207,26.6534161 C157.832402,25.1329193 160.067039,21.6447205 159.821229,17.731677 M148.357542,12.3428571 C150.502793,11.5826087 152.648045,12.2757764 153.921788,14.1093168 L145.22905,17.1726708 C145.162011,14.9142857 146.324022,13.0583851 148.357542,12.3428571" id="Shape"></path>
                <path d="M135.977654,19.0732919 L135.977654,12.5440994 L139.329609,12.5440994 L139.329609,8.36273292 L135.977654,8.36273292 L135.977654,3.66708075 L131.217877,3.66708075 L131.217877,8.36273292 L128.98324,8.36273292 L128.98324,12.5440994 L131.217877,12.5440994 L131.217877,19.0285714 C131.217877,24.0819876 134.100559,27.3465839 139.530726,26.7652174 L139.530726,22.4720497 C137.162011,22.6062112 135.977654,21.6447205 135.977654,19.0732919" id="Shape"></path>
                <path d="M99.3296089,7.8931677 L99.3296089,7.8931677 L99.3072626,7.8931677 L99.2849162,7.8931677 L99.2849162,7.8931677 C97.4972067,7.8931677 95.8882682,8.34037267 94.5251397,9.12298137 L94.5251397,0 L89.7653631,0 L89.7653631,17.5080745 L89.7653631,17.5304348 L89.7653631,17.552795 L89.7653631,17.642236 L89.7653631,17.642236 C89.8100559,22.9192547 93.7653631,27.2347826 99.2849162,27.2571429 L99.2849162,27.2571429 L99.3072626,27.2571429 L99.3296089,27.2571429 L99.3296089,27.2571429 C104.893855,27.2347826 108.849162,22.8745342 108.849162,17.552795 C108.871508,12.2086957 104.893855,7.91552795 99.3296089,7.8931677 M99.3072626,22.8968944 C96.6927374,22.8745342 94.5698324,20.4596273 94.5698324,17.4857143 C94.5698324,14.6012422 96.6703911,12.2086957 99.3072626,12.1863354 C101.921788,12.2086957 104.044693,14.6012422 104.044693,17.4857143 C104.044693,20.4596273 101.921788,22.8968944 99.3072626,22.8968944" id="Shape"></path>
                <path d="M64.5139665,19.4757764 C64.5139665,21.8459627 63.5083799,22.8521739 61.5195531,22.8968944 L61.5195531,22.8968944 L61.2290503,22.8968944 L60.9385475,22.8968944 L60.9385475,22.8968944 C58.9497207,22.8521739 57.9441341,21.8459627 57.9441341,19.4757764 L57.9441341,8.34037267 L53.1843575,8.34037267 L53.1843575,19.4534161 C53.1843575,24.4173913 55.7318436,27.2124224 61.2067039,27.2124224 C66.4581006,27.2124224 69.2290503,24.4173913 69.2290503,19.4534161 L69.2290503,8.34037267 L64.5139665,8.34037267 L64.5139665,19.4757764 L64.5139665,19.4757764 Z" id="Shape"></path>
                <path d="M122.167598,18.2906832 L122.145251,18.2906832 L122.145251,20.0795031 C121.988827,22.0024845 120.98324,22.8298137 119.173184,22.8745342 L119.173184,22.8745342 L118.882682,22.8745342 L118.592179,22.8745342 L118.592179,22.8745342 C116.603352,22.8298137 115.597765,21.8236025 115.597765,19.4534161 L115.597765,8.34037267 L110.837989,8.34037267 L110.837989,19.4534161 C110.837989,24.4173913 113.385475,27.2124224 118.860335,27.2124224 C120.089385,27.2124224 121.162011,27.0559006 122.100559,26.7652174 L122.100559,28.173913 C122.100559,30.7453416 120.916201,31.7291925 118.52514,31.5726708 L118.52514,35.8658385 C123.955307,36.447205 126.837989,33.1826087 126.837989,28.1291925 L126.837989,20.2583851 C126.860335,19.9900621 126.860335,19.7440994 126.860335,19.4534161 L126.860335,8.34037267 L122.167598,8.34037267 L122.167598,18.2906832 L122.167598,18.2906832 Z" id="Shape"></path>
            </g>
        </g>
    </g>
</svg>