<svg xmlns="http://www.w3.org/2000/svg" width="724" height="148" viewBox="0 0 724 148">
  <g fill="none" fill-rule="evenodd">
    <path d="M408.1 84.4c-.1-10.6-6.1-16.3-16.7-15.8-7.5.4-12.2 4.9-13.3 12.9-.9 7.2 3 13.4 9.8 15.5 3.5 1.1 7 .6 9.9.8 2.9 0 5.3-.1 7.6 0 2 .1 2.7-.5 2.6-2.6 0-3.5.1-7.2.1-10.8zM117.6 50.8c-1.2 1.7-1.8 4-3.7 5 2-1.1 2.6-3.3 3.7-5zM49.3 142.8l-.1.1.1-.1zM113.6 56.4c-.1-.1-.1-.3-.2-.4h.1c-.5-1.2-1.1-2.4-1.8-3.6-.3-.5-.6-1-.8-1.5-.4-.7-.9-1.4-1.4-2.1l-1.5-2.1-1.2-1.5c-.6-.7-1.2-1.3-1.8-2-.5-.5-1-1-1.5-1.4-.5-.5-1-.9-1.5-1.4-.4-.3-.7-.6-1.1-.9-.3-.2-.5-.4-.8-.6-.9-.7-1.9-1.4-2.9-2-.4-.3-.8-.5-1.3-.8-1.2-.7-2.4-1.4-3.7-2-5.7-2.7-12-4.2-18.7-4.2-24 0-43.5 19.5-43.5 43.5 0 14.3 6.9 26.9 17.4 34.8v.1h.1c.7.5 1.5 1 2.2 1.5.1.2.2.4.3.5.2 0 .3-.1.5-.1.4.2.7.4 1.1.6.1.2.2.3.2.5.1 0 .1-.1.2-.1h.3c.4.2.8.5 1.3.7 0 .1.1.1.1.2.1 0 .1-.1.2-.1l1.2.6v.1c.1 0 .1-.1.2-.1.4.2.9.4 1.3.6 0 .1.1.1.1.2h.3c.4.1.7.3 1.1.4.1.1.2.2.3.2 0 .1.1.1.1.2.1-.1.3-.1.4-.2.4.1.8.3 1.2.4.1.2.2.3.3.5 0-.1.1-.2.1-.3.1 0 .2 0 .2-.1.8.2 1.5.4 2.3.6l.3.3v.1c.2-.1.5-.2.8 0l.3.3c0-.1 0-.2.1-.3.5.1 1.1.2 1.7.3 0 .1 0 .3.1.4.1-.1.2-.2.4-.2.3-.1.7-.1 1-.1.1 0 .2 0 .3.1 0 0-.1 0-.1.1 1.2.1 2.3.3 3.5.3.1.1.1.2.2.2.1-.1.3-.2.4-.2h1.4c1.5 0 3-.1 4.4-.2 21.9-2.2 39.1-20.8 39.1-43.3 0-2.2-.2-4.3-.5-6.4.1.6.3 1.1.4 1.7-.2-.6-.3-1.2-.5-1.7-.6-3.1-1.4-6.7-2.7-10.1zM66.9 116.8c-.1 0-.3-.1-.4-.1 0 .2.2.1.4.1zM64.6 116.3c-.2 0-.4-.1-.5-.1.2 0 .5.3.5.1zM212.4 35.9c0-.1 0-.1 0 0l-.1-.1c-.9-.5-1.9-1.1-2.9-1.5-.4-.2-.8-.4-1.3-.6-.9-.4-1.8-.8-2.7-1.1-.7-.3-1.4-.5-2.1-.7-.9-.3-1.9-.5-2.8-.8-.9-.2-1.9-.4-2.8-.6-.5-.1-1-.2-1.5-.2-1.4-.2-2.8-.3-4.2-.4h-1.7c-1.3 0-2.5.1-3.7.2-21.5 1.8-38.6 19.3-39.7 41.1 0 .7-.1 1.5-.1 2.3 0 6.5 1.4 12.6 3.9 18.1.3.7.6 1.3 1 2s.8 1.5 1.2 2.2c.4.7.9 1.4 1.3 2.1l1.5 2.1c.5.7 1.1 1.4 1.7 2.1.6.7 1.3 1.5 2 2.2.2.2.5.4.7.7.5.5 1 .9 1.5 1.4.5.4 1 .9 1.5 1.3.7.5 1.4 1.1 2.1 1.6.7.5 1.4 1 2.1 1.4.2.1.5.3.7.4.4.2.8.5 1.2.7.9.5 1.9 1 2.9 1.4 5.5 2.5 11.7 4 18.1 4 24 0 43.5-19.5 43.5-43.5 0-13.9-6.5-26.3-16.7-34.3-.7-.5-1.4-1-2-1.5-.9-.9-1.7-1.4-2.6-2zM697.7 97.9c2.8 0 5-.2 7.2 0 2.4.2 3-.8 2.9-3-.2-3.5 0-7 0-10.6-.1-10.6-6.1-16.2-16.7-15.7-7.2.4-12.2 4.9-13.1 11.9-1 8.1 2.5 14.2 9.4 16.5 3.5 1.2 7.2.7 10.3.9zM584.8 84.3c-.1-10.6-6-16.2-16.7-15.7-7.2.3-12.2 4.9-13.1 11.9-1 8.1 2.5 14.2 9.4 16.5 3.6 1.2 7.2.7 10.3.9 2.8 0 5-.2 7.2 0 2.4.2 3-.8 2.9-3-.1-3.5.1-7.1 0-10.6z"/>
    <path fill="#F26F42" d="M722.9 98.6c-.1 3.7 0 7.5 0 11.3 0 1.3 0 2.3-1.8 2.3-10.4-.2-20.8.3-31.3-.3 1.4.7 3 .4 4.5.4 9.6.1 19.3.1 28.9.2V82.1c-.8 5.5-.2 11-.3 16.5z"/>
    <path fill="#F05B28" d="M347 81.2c-5-2.9-10.7-4.1-16-6.5-2.6-1.1-5.5-2.3-4.9-6 .3-2.2 3.9-3.4 7.6-2.6 2.3.5 4.5 1.3 6.7 2.2 1.7.7 3.4 1.6 5 2.6 1.5 1 2.5.8 3.3-.8 1.3-2.4 2.6-4.7 4.2-6.9 1.4-1.9.8-2.7-1-3.8-4.1-2.4-8.3-4.4-13-5.4-8.2-1.8-16-1.1-22.8 4.1-7.8 6-7.6 17.5.2 23.4 2.8 2.2 6.1 3.6 9.3 4.9 3.5 1.4 7 2.7 10.4 4.2 2.2 1 4.3 2.4 3.9 5.2-.4 3-2.9 3.8-5.3 4.3-4.4.9-8.6-.4-12.7-1.8-3-1-5.6-5-8.4-3.4-2.5 1.5-3.4 5.4-5 8.3-.1.1-.1.2-.2.3-.8 1.1-.5 1.8.6 2.5 7 4.1 14.3 7.1 22.8 7.1 5.8-.1 11.6-1.4 16.7-4.9 3.2-2.2 5.5-5.1 6.4-9 2.2-7.4-.6-13.8-7.8-18zM647.8 81.9c-3.3-2.1-6.9-3.4-10.6-4.7-2.9-1-5.8-1.9-8.5-3.4-1.8-1.1-3.4-2.4-2.9-4.7.5-2.5 2.7-2.8 4.7-3 4-.4 7.6 1.3 11.1 3 5.9 2.8 5.9 2.9 9.2-2.6 3.6-5.9 3.6-5.9-2.8-9-8.8-4.3-17.8-5.9-27.2-2-4.8 2-8.4 5.2-9.8 10.4-2.1 7.4.7 13.6 8 17.7 5 2.9 10.7 4.3 15.9 6.7 2.6 1.2 5.8 2.5 5 6.3-.8 3.5-4.1 3.7-7.1 4.1-1.9.2-3.7 0-5.6-.4-4.1-.9-7.8-2.7-11.2-4.9-1.5-.9-2.3-1.2-3.2.6-1.3 2.6-2.8 5.2-4.3 7.7-.7 1.2-.7 1.9.7 2.7 6.9 4 14.1 6.9 21.9 7.1 6.3-.1 12-1.3 17.1-4.6 9.8-6.9 9.7-20.5-.4-27zM535.3 56.3c.1-1.7-.6-2.3-2.3-2.2-3.2.1-6.4 0-9.5 0-5.9 0-5.9 0-5.9-5.9-.1-3.9 1.6-9-.6-11.2-2.4-2.5-7.6-.4-11.5-.8-2.8-.3-3.3.9-3.2 3.4.2 7.9.1 15.8.1 23.7 0 7.8-.1 15.5 0 23.3.2 13.3 9 23.6 22 25.2 7 .9 5.7 1.2 5.8-4.9v-6c0-1.4-.4-2-1.9-2.4-7.3-1.6-10.4-5.3-10.5-12.8-.1-5.2.1-10.4-.1-15.5-.1-2.2.7-2.8 2.8-2.7 4.1.1 8.2 0 12.4.1 1.7 0 2.6-.4 2.5-2.3-.2-3.1-.2-6-.1-9zM461.7 56.2c.1-1.6-.6-1.9-2.1-1.9-13 0-23.7 9.4-25.5 22.3-.8 5.9-.1 11.7-.4 16.6 0 6.1.1 11.1 0 16.2-.1 2.4.7 3.1 3 3 2.9-.2 5.9-.2 8.8 0 2.8.2 3.6-.8 3.5-3.6-.1-9.6-.1-19.3.1-28.9.1-5.2 2.3-10 7.6-11 5.1-.9 5.4-3.5 5-7.4-.2-1.8-.1-3.6 0-5.3zM488.8 83.1c0-8.7-.1-17.4.1-26.1 0-2.3-.7-3.1-3-3-3.2.2-6.3.1-9.5 0-1.9-.1-2.7.4-2.7 2.5.1 17.7.1 35.5 0 53.2 0 1.8.6 2.5 2.4 2.4 2.9-.1 5.9-.2 8.8 0 3 .3 4.1-.5 4-3.8-.2-8.2-.1-16.7-.1-25.2z"/>
    <path fill="#F05B29" d="M481.7 33.6c-4-.2-7.7 3.3-7.8 7.4-.1 4.1 3.3 7.7 7.4 7.8 4.1.1 7.7-3.3 7.9-7.4.1-3.9-3.3-7.6-7.5-7.8z"/>
    <path fill="#F05B28" d="M716.7 64.5c-7.9-8.9-18.1-11.2-29.4-9.9-15.5 1.7-25.6 14.4-24.8 31 .7 14.7 12.5 26.1 27.4 26.3 10.4.6 20.8.1 31.3.3 1.8 0 1.8-1.1 1.8-2.3 0-3.8-.1-7.5 0-11.3.2-5.5-.5-11 .3-16.5v-3.5c-1.7-5-3-10.1-6.6-14.1zM687.4 97c-6.9-2.3-10.4-8.3-9.4-16.5.9-7 5.9-11.6 13.1-11.9 10.6-.5 16.6 5.1 16.7 15.7 0 3.5-.1 7.1 0 10.6.1 2.2-.4 3.2-2.9 3-2.2-.2-4.5 0-7.2 0-3.1-.2-6.8.3-10.3-.9zM600.2 81.4c-.6-11.9-6.6-20.4-17.7-24.9-5.6-2.3-11.4-2.6-17.3-2-13.9 1.4-24.6 12.1-25.6 25.8-1.1 15.5 7.3 27.5 21.5 30.9 7.2 1.7 14.5.8 20.7 1.1 6 0 11-.1 15.9 0 2 0 2.6-.6 2.6-2.6-.1-9.4.3-18.9-.1-28.3zM582 97.9c-2.2-.2-4.5 0-7.2 0-3.1-.1-6.7.3-10.3-.9-6.9-2.3-10.4-8.4-9.4-16.5.9-7 5.9-11.6 13.1-11.9 10.6-.5 16.6 5.1 16.7 15.7 0 3.5-.1 7.1 0 10.6.1 2.2-.5 3.2-2.9 3zM423.4 82.3c-.3-13-8.2-23.3-20.6-26.8-4.8-1.4-9.7-1.5-14.7-1-13.6 1.4-24.3 12-25.3 25.2-1.1 15.9 7 28 21.2 31.4 7.2 1.7 14.5.9 20.7 1.1 6 0 10.9-.1 15.9 0 2.1.1 2.9-.6 2.8-2.8 0-9 .2-18 0-27.1zm-17.9 15.6c-2.3-.1-4.7 0-7.6 0-3-.2-6.5.3-9.9-.8-6.8-2.1-10.8-8.3-9.8-15.5 1.1-8 5.7-12.6 13.3-12.9 10.6-.5 16.6 5.2 16.7 15.8 0 3.6-.1 7.3 0 10.9 0 2-.7 2.6-2.7 2.5z"/>
    <path fill="#F6A37C" d="M65.6 133.2c-2.1 3.8-4.2 7.5-6.8 11-.5.6-1.1.8-1.8.9 11.1 2.9 22.2 2.9 33.3-.1-4.5-8.9-9.6-17.6-14.9-26.1-4.2 4.1-7 9.2-9.8 14.3z"/>
    <path fill="#F6976C" d="M206.7 4.7c-4.5 7.5-9.1 15-13.8 22.4-.6.9-1 1.8-1 2.9 1.4.1 2.8.2 4.2.4-1.9-2.6 1-4.1 1.8-5.6 3.8-6.6 8.1-12.9 12.2-19.3.6-1 1.2-1.7 2.4-1.7-.8-.8-1.8-.7-2.7-.7-1.3-.1-2.2.2-3.1 1.6z"/>
    <path fill="#F5966B" d="M54.9 141.8c4.5-7.3 9-14.6 13.6-21.9.9-1.5.8-2.5-.9-3 .1-.1.3-.2.4-.3 0 0 .1 0 .1-.1-.1 0-.2-.1-.3-.1-.4 0-.7 0-1 .1-.1.1-.2.1-.4.2.1 0 .3.1.4.1-4.3 7-8.5 13.9-12.8 20.9-1.2 2-1.1 5.4-4.8 5.1l-.1.1c.7.8 1.7.8 2.6.8 1.6.1 2.5-.7 3.2-1.9z"/>
    <path fill="#F26F3B" d="M216.1 24c-2.3 3.3-4.4 6.8-6.6 10.3h-.1c1 .5 1.9 1 2.9 1.5h.1v-.1c5.1-8.5 9.9-17.2 15.9-25.1-.6-.7-1.4-1.2-2.3-1.3-4.3 4.3-6.6 9.9-9.9 14.7z"/>
    <path fill="#F58C5D" d="M213 5.5c-5.1 8.4-10.2 16.7-15.4 25 1 .2 1.9.4 2.8.6 1.9-3.2 3.7-6.3 5.7-9.5 3.4-5.6 6.6-11.4 10.6-16.6-.5-.7-1.3-.7-2.1-.7-.7.1-1.2.5-1.6 1.2z"/>
    <path fill="#F6986D" d="M152.9 95.6c-.4-.7-.8-1.4-1.2-2.2-3.3 5.3-6.7 10.4-9.8 15.8-2.3 4-5.4 7.5-7.2 11.8.5.5.9 1 1.4 1.5 3.5-5.8 7-11.6 10.6-17.4 1.9-3.1 4.1-6.3 6.2-9.5z"/>
    <path fill="#F59063" d="M155.7 99.8l-1.5-2.1c-3.8 3.6-5.7 8.5-8.6 12.7-3 4.3-4.9 9.3-9 12.8.7 1 1.2 2 2.4 2.6 3.9-7.6 8.8-14.6 13.3-21.9.9-1.5 1-3.8 3.4-4.1z"/>
    <path fill="#F58C5D" d="M155.1 104.3c.6-1 .8-2.3 2.3-2.4-.6-.7-1.2-1.4-1.7-2.1-2.3.3-2.5 2.6-3.4 4.1-4.4 7.3-9.4 14.3-13.3 21.9.7.6 1.3 1.2 2 1.8 2.8-5.9 6.7-11 9.9-16.6 1.2-2.3 2.8-4.5 4.2-6.7z"/>
    <path fill="#F48555" d="M146.3 123.4c3.4-5.7 6.9-11.3 10.4-17 .6-1 1-2.5 2.7-2.4-.7-.7-1.3-1.4-2-2.2-1.5.1-1.7 1.4-2.3 2.4-1.4 2.2-3 4.4-4.3 6.7-3.1 5.6-7.1 10.8-9.9 16.6.7.7 1.5 1.3 2.2 2 0-2.6 2-4.1 3.2-6.1z"/>
    <path fill="#F27B49" d="M59.1 117.2c.7-1.1.1-1.5-.7-1.9-5.6 8.1-10.5 16.6-15.7 25 .5.2.9.4 1.4.6 5.4-7.7 10-15.8 15-23.7z"/>
    <path fill="#F38150" d="M145.1 128.1c5.3-7.6 9.2-16 15-23.3-.2-.2-.5-.4-.7-.7-1.7 0-2.1 1.4-2.7 2.4-3.5 5.6-7.1 11.2-10.4 17-1.1 2-3.2 3.5-3.1 6.1l1.5 1.2c0-.9-.2-1.9.4-2.7z"/>
    <path fill="#F37A47" d="M163.1 107.5v-.1c-.5-.4-1-.9-1.5-1.3v.1c-3.2 2.2-4.4 5.9-6.4 9-3.4 5.3-6.5 10.8-9.8 16.3.4.3.9.6 1.3.9 4.2-6.8 8.4-13.7 12.8-20.4 1-1.7 1.3-4 3.6-4.5z"/>
    <path fill="#F27441" d="M165 109h.1c-.7-.5-1.4-1-2.1-1.6v.1c-2.3.5-2.6 2.8-3.6 4.4-4.4 6.7-8.5 13.6-12.8 20.4.5.8 1.2 1.2 2.1 1.5 4.6-7.3 9.2-14.7 13.8-22 .7-1.1 1.3-2.2 2.5-2.8z"/>
    <path fill="#F26F3B" d="M167.1 110.4c.1 0 .1 0 .2-.1-.7-.4-1.4-.9-2.1-1.4h-.1c-1.3.6-1.8 1.8-2.5 2.9-4.6 7.3-9.2 14.7-13.8 22 .5.4 1 .7 1.5 1.1 4.2-6.6 8.3-13.3 12.5-19.8 1.1-1.8 1.7-4.3 4.3-4.7z"/>
    <path fill="#F48B5C" d="M49.3 142.8c3-5.3 6.1-10.6 9.2-15.8 1.8-3 3.6-6 5.4-8.9.4-.7.7-1.2.2-1.9.2 0 .4.1.5.1l-.3-.3c-.3-.1-.5-.1-.8 0-.1 0-.1.1-.2.1-3.6 6.3-7.4 12.6-11.4 18.6-1.6 2.4-2.8 5-4.2 7.6l1.5.6.1-.1z"/>
    <path fill="#F27947" d="M117.8 16.4c-.5 2.8-2 5.2-3.6 7.5-2.4 3.6-4.7 7.3-7.1 11-.5.8-.7 1.7-.6 2.7 4.9-6.6 10.1-13.1 13.5-20.7-.5-.8-1.2-1.3-2.2-1.3v.8z"/>
    <path fill="#F6A37C" d="M118.2 50c-.1.1-.2.2-.3.4v.1c-.1.1-.2.2-.2.3-1.2 1.8-1.8 4-3.7 5-.1.1-.3.1-.4.2h-.1c.1.1.1.3.2.4 1.4 3.4 2.1 7 3.1 10.5.1.6.3 1.2.5 1.7.2-.4.6-.8.6-1.2.1-7.2 2.4-13.9 4.4-20.7-2.3.3-3 2-4.1 3.3z"/>
    <path fill="#F05B28" d="M233.8 14.2c-1.2 0-1.8.8-2.4 1.7-4.7 7.7-9.7 15.1-14 23.1-.1 0-.2.1-.3.1 10.2 8 16.7 20.3 16.7 34.3 0 24-19.5 43.5-43.5 43.5-6.5 0-12.6-1.4-18.1-4v.3c-3.5 2.4-4.7 6.5-6.9 9.8-3.3 4.9-6.3 10.1-9.4 15.2 14.6 8.1 30.4 10.7 46.7 8 42.2-7.1 69.1-46.8 60-88.6-4-18.1-13.6-32.7-28.8-43.4z"/>
    <path fill="#F7A47C" d="M198.9 12.1c1.8-2.9 3.5-5.8 5.4-8.5.7-1 1.6-1.3 2.7-1.4-11.2-3-22.3-2.7-33.4.2 5 8.7 9.9 17.4 14.9 26.1 3.4-5.5 7-10.9 10.4-16.4z"/>
    <path fill="#F79D73" d="M204.3 3.5c-1.9 2.8-3.6 5.6-5.4 8.5-3.4 5.5-7 10.9-10.5 16.3.7 2-1.1 1.2-1.9 1.6 1.2-.1 2.5-.2 3.7-.2h1.7c-.1-1.1.4-1.9 1-2.9 4.7-7.4 9.3-14.8 13.8-22.4.8-1.4 1.8-1.7 3.1-1.8-.8-.8-1.9-.7-2.9-.7-1 .3-1.9.6-2.6 1.6z"/>
    <path fill="#F59063" d="M210.1 5.4c-4.1 6.4-8.4 12.7-12.2 19.3-.9 1.5-3.8 3-1.8 5.6.5.1 1 .1 1.5.2 5.1-8.3 10.3-16.7 15.4-25 .4-.7.9-1 1.7-1.1-.6-.7-1.3-.7-2.1-.7-1.3 0-1.9.8-2.5 1.7z"/>
    <path fill="#F48555" d="M200.4 31.1c1 .2 1.9.5 2.8.8 4.4-8.2 9.5-15.9 14.4-23.7.6-.9 1.4-1.6 2.6-1.6-1-.9-2.2-1.2-3.5-1.4-4 5.2-7.2 11-10.6 16.6-1.9 3-3.8 6.1-5.7 9.3z"/>
    <path fill="#F37F4E" d="M217.7 8.2c-4.9 7.8-10.1 15.5-14.4 23.7.7.2 1.4.5 2.1.7v-.1c4.8-7.7 9.6-15.3 14.3-23 .6-.9.8-2 2-2.4-.3-.5-.9-.7-1.5-.7-1.2.1-1.9.8-2.5 1.8z"/>
    <path fill="#F37A47" d="M219.7 9.6c-4.8 7.7-9.6 15.3-14.3 23v.1c.9.3 1.8.7 2.7 1.1v-.1c1.3-4.2 4.3-7.4 6.4-11.2 2.1-3.9 4.7-7.5 7-11.3.8-1.2 1.5-2.4 3.1-2.5-.8-.8-1.8-1.3-2.9-1.4-1.1.3-1.4 1.4-2 2.3z"/>
    <path fill="#F27542" d="M221.4 11.1c-2.3 3.8-4.8 7.4-7 11.3-2.1 3.8-5.1 7-6.4 11.2v.1c.4.2.8.4 1.3.6h.1c2.2-3.4 4.2-6.9 6.6-10.3 3.3-4.9 5.6-10.4 9.8-14.7-.3-.5-.8-.7-1.4-.7-1.5.1-2.2 1.2-3 2.5z"/>
    <path fill="#F16934" d="M212.3 35.7v.2c.9.5 1.7 1.1 2.6 1.7.1 0 .2 0 .3-.1.6-4.4 3.7-7.5 5.9-11 3.1-4.8 5.3-10.2 9.4-14.3-.5-1-1.4-1.3-2.4-1.6-5.8 8-10.6 16.7-15.8 25.1z"/>
    <path fill="#F1622D" d="M215.3 37.5c-.1 0-.2 0-.3.1.7.5 1.4 1 2 1.5.1 0 .2 0 .3-.1 4.3-7.9 9.3-15.4 14-23.1.6-1 1.2-1.7 2.4-1.7-.6-1.3-2.2-1.2-3.2-2-4.1 4.1-6.3 9.5-9.4 14.3-2.1 3.6-5.2 6.6-5.8 11z"/>
    <path fill="#F7A37B" d="M146.8 71.1c-.3 1.1-.1 2.3 0 3.4.2 6-.5 11.8-2 17.6-1.2 4.5-3.2 8.7-4.5 13.2 1.4.9 1.3-.6 1.8-1.2 3.1-4.1 4.7-9.2 8.6-12.7-2.5-5.5-3.9-11.6-3.9-18.1-.1-.7 0-1.4 0-2.2z"/>
    <path fill="#F79E74" d="M151.7 93.5c-.3-.7-.7-1.3-1-2-3.9 3.5-5.5 8.6-8.6 12.7-.4.6-.3 2.1-1.8 1.2-2.8 4.5-5.6 8.9-8.4 13.4.9.8 1.9 1.6 2.8 2.4 1.7-4.3 4.9-7.8 7.2-11.8 3-5.5 6.5-10.7 9.8-15.9z"/>
    <path fill="#F69569" d="M145.6 110.4c2.9-4.2 4.8-9.1 8.6-12.7-.5-.7-.9-1.4-1.3-2.1-2.1 3.2-4.2 6.4-6.2 9.6-3.6 5.8-7.1 11.6-10.6 17.4l.6.6c4-3.5 6-8.5 8.9-12.8z"/>
    <path fill="#F37E4C" d="M161.5 106.1c-.5-.5-1-1-1.5-1.4-5.8 7.3-9.7 15.8-15 23.3-.6.8-.4 1.8-.4 2.7.2.2.5.4.7.6 3.2-5.4 6.3-11 9.8-16.3 2-2.9 3.2-6.7 6.4-8.9z"/>
    <path fill="#F26B36" d="M168.1 111c0-.1 0-.2-.1-.2-.2-.1-.5-.3-.7-.4-.1 0-.1 0-.2.1-2.6.4-3.2 2.9-4.3 4.7-4.2 6.6-8.3 13.2-12.5 19.8.4.3.9.6 1.3 1 2.8-4.5 5.4-9.2 8.4-13.6 2.6-3.9 4.1-8.6 8.1-11.4z"/>
    <path fill="#F16832" d="M169.2 111.5c-.4-.2-.8-.5-1.2-.7 0 .1 0 .1.1.2-4 2.8-5.5 7.4-8 11.3-3 4.4-5.6 9.1-8.4 13.6.5.8 1.4.8 2.2 1.2 5.1-8.4 10.2-16.9 15.3-25.3v-.3z"/>
    <path fill="#F1612D" d="M165.2 123c2.2-3.3 3.5-7.4 6.9-9.8v-.3c-1-.4-1.9-.9-2.9-1.4 0 .1 0 .2-.1.3-5.1 8.4-10.2 16.9-15.3 25.3.7.4 1.3.7 2 1.1 3.1-5.1 6.1-10.2 9.4-15.2z"/>
    <path fill="#F05B28" d="M140.3 105.3c1.3-4.5 3.4-8.6 4.5-13.2 1.5-5.8 2.2-11.6 2-17.6 0-1.1-.3-2.3 0-3.4 1.1-21.7 18.2-39.3 39.7-41.1.8-.4 2.6.4 1.9-1.6-5-8.7-9.9-17.4-14.9-26.1-16.8 3.7-30.2 12.8-40.9 26.1-4.1 5.8-7.7 11.8-10.6 18.3-2 6.8-4.3 13.5-4.4 20.7 0 .4-.4.8-.6 1.2-.2-.6-.3-1.1-.4-1.7.3 2.1.5 4.2.5 6.4 0 22.5-17.1 41.1-39.1 43.3.1.1.2.1.2.2-.7 1.1-2.9-.1-2.9 2 5.3 8.5 10.3 17.2 14.9 26.1.8-.1 1.6-.1 2.4-.3 15.9-4.3 28.9-13.1 39.2-25.9 2.9-4.5 5.7-8.9 8.5-13.4z"/>
    <path fill="#EF5A27" d="M47.1 108.5c.2-.1.3-.1.5-.1v-.1C37 100.4 30.2 87.7 30.2 73.5c0-24 19.5-43.5 43.5-43.5 6.7 0 13 1.5 18.7 4.2 2.1-1 3.1-3.1 4.2-4.9 3.5-5.6 6.8-11.2 10.2-16.8.7-1.1 1.3-2.2 1.2-3.6-.4-.3-.8-.5-1.2-.8-41.7-21.5-94 2.5-104.9 48.1-.6 2.5-.2 4.6-1.1 7.3C-.3 69.9.2 76.7.7 83c.8 2.7.5 5.6 1.2 8.2 4.7 17.8 14.3 32.3 29.7 42.7 5.4-7.7 9.5-16.2 15.3-23.7.2-.5.1-1.2.2-1.7z"/>
    <path fill="#F6A077" d="M58.8 144.2c2.6-3.5 4.7-7.2 6.8-11 2.8-5.1 5.7-10.2 9.8-14.3-.1-2.1 2.2-.9 2.9-2-.1-.1-.2-.1-.2-.2-1.5.1-2.9.2-4.4.2h-1.4c-.1.1-.3.1-.4.2.1.1.1.2.2.3-4.2 8.6-9.6 16.6-14.6 24.8-.7 1.2-1.5 2.5-3.2 2.2.8.8 1.8.7 2.8.7.5-.1 1.2-.3 1.7-.9z"/>
    <path fill="#F69C72" d="M57.3 142.1c4.9-8.2 10.4-16.1 14.6-24.8-.1-.1-.1-.2-.2-.3-.1-.1-.1-.2-.2-.2-1.2-.1-2.3-.2-3.5-.3-.1.1-.3.2-.4.3 1.8.6 1.8 1.6.9 3-4.6 7.3-9.1 14.6-13.6 21.9-.7 1.2-1.6 2-3.1 1.9.6.7 1.4.7 2.2.7 1.8.3 2.6-1 3.3-2.2z"/>
    <path fill="#EF5D2A" d="M106.7 12.4c-3.4 5.6-6.7 11.2-10.2 16.8-1.1 1.8-2.1 3.9-4.2 4.9 1.3.6 2.5 1.3 3.7 2 5.2-8.4 10.7-16.6 15.4-25.2-1.2-.7-2.4-1.4-3.5-2 .1 1.3-.6 2.4-1.2 3.5z"/>
    <path fill="#F0622D" d="M97.2 36.9c4.5-4.3 7.5-9.7 10.5-15.1 1.8-3.3 4.4-6 5.8-9.5l-2.1-1.5C106.7 19.5 101.2 27.7 96 36l1.2.9z"/>
    <path fill="#F06631" d="M97.2 36.9c1 .6 2 1.3 2.9 2 1.3-5.1 5.2-8.9 7.6-13.5 2.2-4.2 5.5-7.9 7.2-12.4-.5-.3-.9-.5-1.4-.8-1.4 3.5-4 6.2-5.8 9.5-2.9 5.4-6 10.9-10.5 15.2z"/>
    <path fill="#F16D38" d="M100.1 38.9c.3.2.5.4.8.6 5.4-8.3 10.8-16.6 15.5-25.4-.5-.4-1-.7-1.5-1.1-1.7 4.5-5 8.2-7.2 12.4-2.4 4.6-6.2 8.4-7.6 13.5z"/>
    <path fill="#F1713E" d="M100.9 39.6c.4.3.7.6 1.1.9 4.6-7.4 9.2-14.9 13.8-22.3.5-.8.8-1.7 1.9-1.7v-.8c-.2-.8-.6-1.3-1.4-1.4-4.5 8.7-9.9 17-15.4 25.3z"/>
    <path fill="#F27441" d="M106.5 37.6c-.1-1 .1-1.9.6-2.7 2.3-3.7 4.6-7.4 7.1-11 1.6-2.3 3.1-4.6 3.6-7.5-1.2 0-1.5 1-1.9 1.7-4.6 7.4-9.2 14.9-13.8 22.3.5.4 1 .9 1.5 1.4.9-1.4 1.9-2.8 2.9-4.2z"/>
    <path fill="#F27E4D" d="M106.5 37.6c-1 1.4-1.9 2.8-2.9 4.2.5.5 1 1 1.5 1.4 1.5-.1 1.9-1.5 2.6-2.5 1.6-2.3 3.1-4.7 4.5-7.1 2.9-5.3 6.9-10.1 9.2-15.7-.4-.3-.9-.7-1.3-1-3.6 7.6-8.7 14.1-13.6 20.7z"/>
    <path fill="#F38556" d="M107.6 40.8c-.7 1-1.1 2.4-2.6 2.5.6.6 1.2 1.3 1.8 2 4-3.8 6-9 8.9-13.6 2.5-4 5.7-7.7 7.1-12.4-.5-.4-1-.8-1.4-1.3-2.3 5.7-6.3 10.4-9.2 15.7-1.4 2.5-3 4.8-4.6 7.1z"/>
    <path fill="#F48B5D" d="M106.8 45.3l1.2 1.5c.7-.1 1.2-.5 1.5-1.1 4.5-7.9 10.2-15.1 14.1-23.4.2-.5.3-1.1.5-1.7-.5-.5-1-.9-1.4-1.4-1.3 4.7-4.5 8.4-7.1 12.4-2.8 4.6-4.8 9.8-8.8 13.7z"/>
    <path fill="#F59164" d="M123.6 22.3c-3.9 8.3-9.6 15.5-14.1 23.4-.4.6-.8 1-1.5 1.1l1.5 2.1c2.8-1.5 2.6-4.9 4.3-7.2 4.5-6.1 8.7-12.3 12.4-19-.5-.9-1.2-1.6-2.1-2.1-.1.6-.2 1.1-.5 1.7z"/>
    <path fill="#F5976C" d="M109.5 48.8c.5.7.9 1.4 1.4 2.1 5.6-8.9 11.2-17.8 16.8-26.8-.5-.5-.9-1-1.4-1.5-3.7 6.6-7.9 12.9-12.4 19-1.8 2.4-1.6 5.7-4.4 7.2z"/>
    <path fill="#F69C72" d="M111.7 52.4c1.2-.1 1.5-1.1 2.1-1.9 3.8-5.3 7-10.9 10.7-16.3 1.8-2.6 4-5.1 4.5-8.5-.3-.7-.7-1.2-1.4-1.5C122 33.1 116.4 42 110.8 51c.4.4.6.9.9 1.4z"/>
    <path fill="#F6A179" d="M113.8 50.5c-.6.8-1 1.8-2.1 1.9l1.8 3.6c.1-.1.3-.1.4-.2 2-1.1 2.6-3.3 3.7-5 .1-.1.2-.2.2-.3v-.1c.1-.1.2-.3.3-.4 1.1-1.3 1.8-3 3.8-3.2 2.9-6.5 6.5-12.5 10.6-18.3-2 .1-2.2-2.1-3.6-2.8-.4 3.4-2.7 6-4.5 8.5-3.5 5.4-6.8 11-10.6 16.3z"/>
    <path fill="#EF5D2A" d="M38.3 129.6c3.9-6.3 7.8-12.7 11.7-19.1.1 0 .2 0 .2-.1-.1-.2-.2-.4-.3-.5-.8-.5-1.5-1-2.2-1.5h-.1c-.1 0-.3.1-.5.1-.1.6 0 1.3-.3 1.7-5.8 7.5-9.9 16-15.3 23.7.5.7 1.1 1.2 2 1.3 3-.7 3.5-3.6 4.8-5.6z"/>
    <path fill="#F0622D" d="M38.3 133.8c4.8-7.2 8.3-15.2 13.8-21.9 0-.1-.1-.3-.1-.4-.1-.2-.1-.4-.2-.5-.4-.2-.7-.4-1.1-.6-.1 0-.3 0-.5.1-.1 0-.2 0-.2.1-3.9 6.4-7.7 12.8-11.7 19.1-1.3 2.1-1.7 5-4.8 5.6.6.8 1.3 1.2 2.2 1.4 1.3-.7 1.8-1.8 2.6-2.9z"/>
    <path fill="#F06530" d="M41.8 131.7c3.8-6.4 8.5-12.3 11.7-19.1.1-.1.2-.2.3-.2 0-.1-.1-.1-.1-.2-.4-.2-.9-.4-1.3-.7h-.3c-.1 0-.1.1-.2.1 0 .1.1.2.1.4-5.5 6.7-9 14.7-13.8 21.9-.7 1.1-1.3 2.2-2.6 2.8.4.2.9.5 1.3.7 3.2-.7 3.6-3.6 4.9-5.7z"/>
    <path fill="#F16C38" d="M43.2 132.9c2.7-4.1 5.3-8.2 8-12.3 1.5-2.3 3-4.7 3.7-7.4.1-.1.2-.1.4-.2v-.1l-1.2-.6c-.1 0-.1 0-.2.1s-.2.1-.3.2c-3.2 6.8-7.9 12.7-11.7 19.1-1.3 2.1-1.7 5-4.8 5.6.6.7 1.4 1.1 2.4 1.3 2.2-1.2 2.5-3.8 3.7-5.7z"/>
    <path fill="#F1713E" d="M43.3 136c4.5-7.4 9.1-14.6 13.7-21.9 0-.1-.1-.2-.1-.3 0-.1-.1-.1-.1-.2-.4-.2-.9-.4-1.3-.6-.1 0-.1 0-.2.1s-.2.1-.4.2c-.7 2.7-2.2 5.1-3.7 7.4-2.7 4.1-5.3 8.2-8 12.3-1.3 1.9-1.5 4.5-3.9 5.8.8.7 1.5 1.6 2.8 1.4 0-1.6.4-3.1 1.2-4.2z"/>
    <path fill="#F27643" d="M58.4 115.3v-.7c.1 0 .1-.1.2-.1 0-.1 0-.1-.1-.2s-.2-.2-.3-.2c-.4-.1-.7-.3-1.1-.4h-.3c0 .1.1.2.1.3-4.6 7.3-9.2 14.6-13.7 21.9-.7 1.2-1.2 2.6-1.1 4 .2.2.4.3.6.3 5.2-8.3 10.1-16.8 15.7-24.9z"/>
    <path fill="#F27F4E" d="M58.4 120.9c1.1-1.7 2.6-3.2 2.1-5.6-.1-.2-.2-.4-.3-.5-.4-.1-.8-.3-1.2-.4-.1 0-.3.1-.4.2-.1 0-.1.1-.2.1v.7c.8.4 1.3.8.7 1.9-5 7.9-9.5 16-15 23.7.4.6 1 .6 1.6.7 3.9-7.3 8.4-14 12.7-20.8z"/>
    <path fill="#F38556" d="M63.4 116.1c.1 0 .1-.1.2-.1v-.1l-.3-.3c-.8-.2-1.6-.4-2.3-.6-.1 0-.2 0-.2.1s-.1.2-.1.3c.5 2.3-1 3.9-2.1 5.6-4.3 6.8-8.8 13.5-12.7 20.6.5.7 1.3.7 2.1.8 1.4-2.5 2.6-5.2 4.2-7.6 3.8-6.1 7.6-12.3 11.2-18.7z"/>
    <path fill="#F48E61" d="M66.4 116.3c-.6-.1-1.1-.2-1.7-.3 0 .1-.1.2-.1.3 0 .2-.4-.1-.5-.1.4.7.2 1.2-.2 1.9-1.9 2.9-3.7 5.9-5.4 8.9-3.1 5.2-6.1 10.5-9.2 15.8 3.7.3 3.5-3.1 4.8-5.1 4.3-7 8.5-13.9 12.8-20.9-.1 0-.4.1-.4-.1-.1-.1-.1-.3-.1-.4z"/>
  </g>
</svg>
