<svg width="62" height="23" viewBox="0 0 62 23" xmlns="http://www.w3.org/2000/svg"><title>m2x</title><path d="M14.364.846l-3.88 14.47h-.052L6.5.846H0v22.118l4.85.025-.356-16.617.053-.06 4.226 16.52h3.344l4.227-16.52.054.06.376 16.616 4.117-.026V.846h-6.526zM38.142 23l2.71-3.81H28.87l4.886-3.908c2.476-1.985 4.66-4.23 4.66-7.354 0-3.97-3.52-7.09-7.95-7.09s-7.402 3.212-7.915 7.15c-.294 1.648 0 2.9.032 3.135h4.164c-.548-2.587.168-4.1.59-4.858.62-1.08 1.89-1.75 3.226-1.75 2.117 0 3.518 1.37 3.518 3.238 0 1.78-1.302 3.122-2.67 4.26l-8.6 7.178V23H38.14zm23.845-.007l-7.514-11.297L61.106 1.56h-6.25l-3.61 6.11-3.728-6.11h-6.282l6.722 10.02-7.602 11.413h6.193l4.46-7.59 4.696 7.59h6.28z" fill="#31A4DD" fill-rule="evenodd"/></svg>
