<?xml version="1.0" encoding="UTF-8" standalone="no"?>
<svg width="55px" height="21px" viewBox="0 0 55 21" version="1.1" xmlns="http://www.w3.org/2000/svg" xmlns:xlink="http://www.w3.org/1999/xlink">
    <g id="Page-1" stroke="none" stroke-width="1" fill="none" fill-rule="evenodd">
        <path d="M10.6268571,2.57577901 L10.6268571,0.965902013 L0,0.965902013 L0,20.4888049 L1.84424762,20.4888049 L1.84424762,10.9464864 L9.74839056,10.9464864 L9.74839056,9.33709311 L1.84424762,9.33709311 L1.84424762,2.57577901 L10.6268571,2.57577901 L10.6268571,2.57577901 Z M18.0223505,20.4888049 L18.0223505,19.0546454 L17.3783755,19.0546454 C16.1195707,19.0546454 15.6511923,19.0253793 15.6511923,17.3569701 L15.6511923,0 L13.9236462,0 L13.9236462,17.8257114 C13.9236462,19.9623781 14.7433387,20.6356191 16.5584412,20.6356191 C17.0494945,20.6262883 17.5389848,20.5771896 18.0221086,20.4888049 L18.0223505,20.4888049 Z M19.9387959,13.1716769 C19.9387959,17.3864781 21.8416966,20.8110948 26.4087793,20.8110948 C31.0042816,20.8110948 32.907666,17.3864781 32.907666,13.1716769 C32.907666,8.81042436 30.9462331,5.41519474 26.4087793,5.41519474 C21.7535355,5.41495287 19.9387959,8.92688406 19.9387959,13.1716769 L19.9387959,13.1716769 Z M21.7537774,13.1424108 C21.7537774,9.89351168 22.7199213,6.82008815 26.4085374,6.82008815 C30.1262988,6.82008815 31.0924427,9.89351168 31.0924427,13.1424108 C31.0924427,16.3620439 30.0970327,19.4353465 26.4378035,19.4353465 C22.7202841,19.4351046 21.7535355,16.361802 21.7535355,13.142169 L21.7537774,13.1424108 Z M54.3400002,5.79565395 L52.5833089,5.79565395 L49.1582086,18.9085568 L49.0411442,18.9085568 L45.3817941,5.79565395 L43.8887396,5.79565395 L40.2587766,18.9375811 L40.1415913,18.9375811 L36.745757,5.79541208 L34.9600415,5.79541208 L39.0585039,20.4889259 L41.1370012,20.4889259 L44.5913677,8.45911031 L44.7084321,8.45911031 L48.0750003,20.4889259 L50.2120298,20.4889259 L54.3400002,5.79565395 Z" id="Flow" fill="#AB98C8"></path>
    </g>
</svg>
