<?xml version="1.0" encoding="UTF-8" standalone="no"?>
<svg width="152px" height="18px" viewBox="0 0 152 18" version="1.1" xmlns="http://www.w3.org/2000/svg" xmlns:xlink="http://www.w3.org/1999/xlink">
    <g id="Page-1" stroke="none" stroke-width="1" fill="none" fill-rule="evenodd">
        <path d="M0.364,16.7916683 L1.996,16.7916683 L1.996,1.26366832 L0.364,1.26366832 L0.364,16.7916683 Z M11.548,17.0796683 C14.956,17.0796683 17.428,14.5596683 17.428,11.1036683 C17.428,7.62366832 14.956,5.07966832 11.548,5.07966832 C8.116,5.07966832 5.644,7.59966832 5.644,11.0556683 C5.644,14.5356683 8.116,17.0796683 11.548,17.0796683 L11.548,17.0796683 Z M11.548,15.7116683 C9.076,15.7116683 7.228,13.7196683 7.228,11.0556683 C7.228,8.39166832 9.076,6.44766832 11.548,6.44766832 C14.02,6.44766832 15.844,8.43966832 15.844,11.1036683 C15.844,13.7676683 13.996,15.7116683 11.548,15.7116683 L11.548,15.7116683 Z M25.204,16.7916683 L26.836,16.7916683 L26.836,2.75166832 L31.708,2.75166832 C32.188,2.75166832 32.452,2.51166832 32.452,2.07966832 L32.452,1.95966832 C32.452,1.50366832 32.188,1.26366832 31.708,1.26366832 L20.332,1.26366832 C19.852,1.26366832 19.588,1.50366832 19.588,1.95966832 L19.588,2.07966832 C19.588,2.51166832 19.852,2.75166832 20.332,2.75166832 L25.204,2.75166832 L25.204,16.7916683 Z M39.676,16.7916683 L44.14,16.7916683 C49.54,16.7916683 52.756,13.8876683 52.756,8.99166832 C52.756,4.11966832 49.612,1.26366832 44.26,1.26366832 L40.588,1.26366832 C40.084,1.26366832 39.676,1.67166832 39.676,2.17566832 L39.676,16.7916683 Z M41.308,15.3516683 L41.308,2.70366832 L44.26,2.70366832 C48.532,2.70366832 51.076,5.07966832 51.076,9.03966832 C51.076,13.0476683 48.604,15.3516683 44.236,15.3516683 L41.308,15.3516683 Z M59.5,17.0556683 C61.324,17.0556683 62.884,16.2876683 63.772,15.0396683 L63.772,16.7916683 L65.284,16.7916683 L65.284,9.51966832 C65.284,6.75966832 63.556,5.07966832 60.652,5.07966832 C58.732,5.07966832 57.364,5.82366832 56.62,6.56766832 C56.236,6.95166832 55.996,7.43166832 55.996,7.71966832 C55.996,8.55966832 56.884,8.65566832 56.884,8.63166832 C57.508,7.45566832 58.684,6.51966832 60.532,6.51966832 C62.596,6.51966832 63.748,7.59966832 63.748,9.56766832 L63.748,9.97566832 L63.508,9.97566832 C58.228,10.0956683 55.564,11.1996683 55.564,13.8636683 C55.564,15.7836683 57.004,17.0556683 59.5,17.0556683 L59.5,17.0556683 Z M59.644,15.7596683 C58.084,15.7596683 57.148,15.0156683 57.148,13.8636683 C57.148,12.0636683 59.164,11.3436683 63.436,11.1996683 L63.748,11.1996683 L63.748,12.2556683 C63.748,14.1516683 61.996,15.7596683 59.644,15.7596683 L59.644,15.7596683 Z M73.036,17.0796683 C73.972,17.0796683 74.644,16.7916683 75.028,16.4076683 C75.292,16.1436683 75.388,15.9036683 75.388,15.6636683 C75.388,15.0636683 74.908,14.8476683 74.86,14.8956683 C74.452,15.3996683 73.876,15.7356683 73.084,15.7356683 C71.812,15.7356683 71.38,14.9436683 71.38,13.2636683 L71.38,6.75966832 L75.076,6.75966832 L75.076,5.36766832 L71.38,5.36766832 L71.38,3.37566832 C71.38,2.79966832 71.116,2.63166832 70.708,2.63166832 L70.54,2.63166832 C70.132,2.63166832 69.844,2.79966832 69.844,3.37566832 L69.844,5.36766832 L68.14,5.36766832 L68.14,6.75966832 L69.844,6.75966832 L69.844,13.4316683 C69.844,15.8076683 70.804,17.0796683 73.036,17.0796683 L73.036,17.0796683 Z M81.364,17.0556683 C83.188,17.0556683 84.748,16.2876683 85.636,15.0396683 L85.636,16.7916683 L87.148,16.7916683 L87.148,9.51966832 C87.148,6.75966832 85.42,5.07966832 82.516,5.07966832 C80.596,5.07966832 79.228,5.82366832 78.484,6.56766832 C78.1,6.95166832 77.86,7.43166832 77.86,7.71966832 C77.86,8.55966832 78.748,8.65566832 78.748,8.63166832 C79.372,7.45566832 80.548,6.51966832 82.396,6.51966832 C84.46,6.51966832 85.612,7.59966832 85.612,9.56766832 L85.612,9.97566832 L85.372,9.97566832 C80.092,10.0956683 77.428,11.1996683 77.428,13.8636683 C77.428,15.7836683 78.868,17.0556683 81.364,17.0556683 L81.364,17.0556683 Z M81.508,15.7596683 C79.948,15.7596683 79.012,15.0156683 79.012,13.8636683 C79.012,12.0636683 81.028,11.3436683 85.3,11.1996683 L85.612,11.1996683 L85.612,12.2556683 C85.612,14.1516683 83.86,15.7596683 81.508,15.7596683 L81.508,15.7596683 Z M95.308,16.7916683 L96.94,16.7916683 L96.94,10.7436683 L100.012,10.7436683 C103.9,10.7436683 105.916,9.06366832 105.916,5.96766832 C105.916,2.96766832 103.828,1.26366832 100.204,1.26366832 L96.22,1.26366832 C95.716,1.26366832 95.308,1.67166832 95.308,2.17566832 L95.308,16.7916683 Z M96.94,9.30366832 L96.94,2.72766832 L100.228,2.72766832 C102.868,2.72766832 104.236,3.85566832 104.236,6.01566832 C104.236,8.15166832 102.868,9.30366832 100.156,9.30366832 L96.94,9.30366832 Z M109.18,16.7916683 L110.74,16.7916683 L110.74,1.95966832 C110.74,0.71166832 110.236,0.44766832 109.708,0.44766832 C109.42,0.44766832 109.18,0.56766832 109.18,0.61566832 L109.18,16.7916683 Z M118.012,17.0556683 C119.836,17.0556683 121.396,16.2876683 122.284,15.0396683 L122.284,16.7916683 L123.796,16.7916683 L123.796,9.51966832 C123.796,6.75966832 122.068,5.07966832 119.164,5.07966832 C117.244,5.07966832 115.876,5.82366832 115.132,6.56766832 C114.748,6.95166832 114.508,7.43166832 114.508,7.71966832 C114.508,8.55966832 115.396,8.65566832 115.396,8.63166832 C116.02,7.45566832 117.196,6.51966832 119.044,6.51966832 C121.108,6.51966832 122.26,7.59966832 122.26,9.56766832 L122.26,9.97566832 L122.02,9.97566832 C116.74,10.0956683 114.076,11.1996683 114.076,13.8636683 C114.076,15.7836683 115.516,17.0556683 118.012,17.0556683 L118.012,17.0556683 Z M118.156,15.7596683 C116.596,15.7596683 115.66,15.0156683 115.66,13.8636683 C115.66,12.0636683 117.676,11.3436683 121.948,11.1996683 L122.26,11.1996683 L122.26,12.2556683 C122.26,14.1516683 120.508,15.7596683 118.156,15.7596683 L118.156,15.7596683 Z M127.636,16.7916683 L129.196,16.7916683 L129.196,8.96766832 C129.868,7.52766832 131.188,6.54366832 132.964,6.54366832 C134.908,6.54366832 136.036,7.93566832 136.036,10.2156683 L136.036,16.7916683 L137.596,16.7916683 L137.596,10.1196683 C137.596,7.09566832 136.084,5.07966832 133.06,5.07966832 C131.284,5.07966832 129.964,5.94366832 129.172,7.14366832 L129.172,6.78366832 C129.172,5.53566832 128.692,5.27166832 128.164,5.27166832 C127.876,5.27166832 127.636,5.39166832 127.636,5.43966832 L127.636,16.7916683 Z M145.276,17.0796683 C148.06,17.0796683 149.788,15.7116683 149.788,13.5996683 C149.788,11.2476683 147.436,10.7436683 145.588,10.3356683 C143.476,9.87966832 142.396,9.54366832 142.396,8.31966832 C142.396,7.19166832 143.404,6.39966832 145.276,6.39966832 C146.836,6.39966832 147.988,7.09566832 148.636,8.07966832 C148.684,8.15166832 149.5,7.86366832 149.5,7.26366832 C149.5,6.97566832 149.332,6.61566832 149.02,6.30366832 C148.372,5.65566832 147.148,5.07966832 145.276,5.07966832 C142.636,5.07966832 140.908,6.49566832 140.908,8.53566832 C140.908,10.8396683 143.14,11.3436683 144.916,11.7276683 C147.076,12.1836683 148.276,12.4716683 148.276,13.8396683 C148.276,14.9916683 147.22,15.7596683 145.324,15.7596683 C143.428,15.7596683 142.18,14.9676683 141.412,13.9116683 C141.364,13.8636683 140.572,14.1036683 140.572,14.7516683 C140.572,15.0396683 140.716,15.3276683 141.1,15.7116683 C141.844,16.4556683 143.26,17.0796683 145.276,17.0796683 L145.276,17.0796683 Z" id="IoT-Data-Plans" fill="#12ABF8"></path>
    </g>
</svg>
