<svg xmlns="http://www.w3.org/2000/svg" width="20" height="20" viewBox="0 0 20 20">
  <path fill="#0674AC" fill-rule="evenodd" d="M1.951443,0 C0.870343579,0 -3.9101602e-18,0.864462879 0,1.93825758 L0,17.4443182 C0,18.5181129 0.870343579,19.3825758 1.951443,19.3825758 L17.562987,19.3825758 C18.6440864,19.3825758 19.51443,18.5181129 19.51443,17.4443182 L19.51443,1.93825758 C19.51443,0.864462879 18.6440864,-3.8837402e-18 17.562987,0 L1.951443,0 L1.951443,0 Z M5.46038145,4.10062618 C6.2090389,4.10062618 6.81541468,4.70290484 6.81541468,5.44650379 C6.81541468,6.19010274 6.2090389,6.7935928 5.46038145,6.7935928 C4.711724,6.7935928 4.10534821,6.19010274 4.10534821,5.44650379 C4.10534821,4.70290484 4.711724,4.10062618 5.46038145,4.10062618 L5.46038145,4.10062618 Z M12.5587554,7.60644957 C12.7118289,7.60699112 12.8680306,7.61416306 13.0783271,7.62704356 C14.1002505,7.68963649 15.2389893,8.482975 15.2724808,10.3418156 C15.3000644,11.8727596 15.2919952,14.2989991 15.2919952,15.1923052 L12.9685584,15.1923052 C12.9685584,14.278428 12.9783156,12.3905841 12.9783156,11.0553366 C12.9783156,10.4477933 12.703746,9.63071733 11.7257331,9.63071733 C10.6486428,9.63071733 10.3865554,10.6248229 10.3865554,11.0553366 C10.3865554,12.3374398 10.3755785,14.3794996 10.3755785,15.1923052 L8.06555786,15.1923052 C8.06555786,13.8221679 8.08019368,9.1196085 8.08019368,7.79179545 C9.27319899,7.79179545 9.84394182,7.78937263 10.2804457,7.78937263 C10.2804457,8.22421025 10.2767867,8.51513031 10.2767867,8.83239749 C10.6411976,8.10162399 11.6362119,7.64406766 12.0623571,7.62219792 C12.2566654,7.61222597 12.4056814,7.60590686 12.5587554,7.60644957 L12.5587554,7.60644957 Z M4.30049251,7.82086932 L6.61661143,7.82086932 L6.61661143,15.1886709 L4.30049251,15.1886709 L4.30049251,7.82086932 L4.30049251,7.82086932 Z"/>
</svg>
