<svg xmlns="http://www.w3.org/2000/svg" width="21" height="20" viewBox="0 0 21 20">
  <path fill="#0674AC" fill-rule="evenodd" d="M10.0820618,0 C4.51489186,0 0,4.48377103 0,10.0151693 C0,14.4399191 2.88881276,18.1933021 6.89551622,19.5175915 C7.3999907,19.6098122 7.58382986,19.3005654 7.58382986,19.0349698 C7.58382986,18.7976552 7.57516404,18.1674803 7.57021215,17.3319606 C4.76558163,17.9369285 4.17382997,15.9892271 4.17382997,15.9892271 C3.71516053,14.8321645 3.05408232,14.5241474 3.05408232,14.5241474 C2.13860041,13.9031946 3.12340887,13.9154907 3.12340887,13.9154907 C4.13545277,13.9861932 4.66778167,14.9477478 4.66778167,14.9477478 C5.56716991,16.4779968 7.02797945,16.0359522 7.60239948,15.7795787 C7.69400957,15.1328041 7.95460313,14.6913743 8.24243213,14.4411487 C6.00355581,14.188464 3.6495479,13.3289669 3.6495479,9.4913557 C3.6495479,8.39823285 4.0426047,7.50369195 4.68758925,6.80404414 C4.58359942,6.55074459 4.23758564,5.53201312 4.78662719,4.15362088 C4.78662719,4.15362088 5.63278255,3.8843364 7.55907038,5.1803448 C8.36313461,4.95778549 9.22600262,4.84712063 10.0832997,4.842817 C10.9399779,4.84712063 11.8022269,4.95778549 12.6075291,5.1803448 C14.532579,3.8843364 15.3774963,4.15362088 15.3774963,4.15362088 C15.9277759,5.53201312 15.5817621,6.55074459 15.4783912,6.80404414 C16.1246138,7.50369195 16.5145756,8.39823285 16.5145756,9.4913557 C16.5145756,13.3388038 14.1568538,14.1853899 11.9111686,14.4331563 C12.2726571,14.742403 12.5951494,15.353519 12.5951494,16.2880222 C12.5951494,17.6264521 12.5827696,18.7066641 12.5827696,19.0349698 C12.5827696,19.3030247 12.7647518,19.6147307 13.2760352,19.5169767 C17.2796437,18.1896133 20.1659805,14.4386895 20.1659805,10.0151693 C20.1659805,4.48377103 15.6510886,0 10.0820618,0"/>
</svg>
