<svg xmlns="http://www.w3.org/2000/svg" width="1008" height="331" viewBox="0 0 1008 331" xmlns:xlink="http://www.w3.org/1999/xlink">
  <defs>
    <rect id="a" width="164" height="130" x="274.839" y="99" rx="5"/>
    <filter id="f" width="200%" height="200%" x="-50%" y="-50%" filterUnits="objectBoundingBox">
      <feOffset dy="6" in="SourceAlpha" result="shadowOffsetOuter1"/>
      <feGaussianBlur stdDeviation="4" in="shadowOffsetOuter1" result="shadowBlurOuter1"/>
      <feComposite in="shadowBlurOuter1" in2="SourceAlpha" operator="out" result="shadowBlurOuter1"/>
      <feColorMatrix values="0 0 0 0 0.644185799 0 0 0 0 0.644185799 0 0 0 0 0.644185799 0 0 0 0.213824728 0" in="shadowBlurOuter1"/>
    </filter>
    <mask id="g" width="164" height="130" x="0" y="0" fill="#fff">
      <use xlink:href="#a"/>
    </mask>
    <rect id="b" width="164" height="130" x="540.839" y="99" rx="5"/>
    <filter id="h" width="200%" height="200%" x="-50%" y="-50%" filterUnits="objectBoundingBox">
      <feOffset dy="6" in="SourceAlpha" result="shadowOffsetOuter1"/>
      <feGaussianBlur stdDeviation="4" in="shadowOffsetOuter1" result="shadowBlurOuter1"/>
      <feComposite in="shadowBlurOuter1" in2="SourceAlpha" operator="out" result="shadowBlurOuter1"/>
      <feColorMatrix values="0 0 0 0 0.644185799 0 0 0 0 0.644185799 0 0 0 0 0.644185799 0 0 0 0.213824728 0" in="shadowBlurOuter1"/>
    </filter>
    <mask id="i" width="164" height="130" x="0" y="0" fill="#fff">
      <use xlink:href="#b"/>
    </mask>
    <rect id="c" width="164" height="130" x="835.839" y="2" rx="5"/>
    <filter id="j" width="200%" height="200%" x="-50%" y="-50%" filterUnits="objectBoundingBox">
      <feOffset dy="6" in="SourceAlpha" result="shadowOffsetOuter1"/>
      <feGaussianBlur stdDeviation="4" in="shadowOffsetOuter1" result="shadowBlurOuter1"/>
      <feComposite in="shadowBlurOuter1" in2="SourceAlpha" operator="out" result="shadowBlurOuter1"/>
      <feColorMatrix values="0 0 0 0 0.644185799 0 0 0 0 0.644185799 0 0 0 0 0.644185799 0 0 0 0.213824728 0" in="shadowBlurOuter1"/>
    </filter>
    <mask id="k" width="164" height="130" x="0" y="0" fill="#fff">
      <use xlink:href="#c"/>
    </mask>
    <rect id="d" width="164" height="130.891" x="835.839" y="186" rx="5"/>
    <filter id="l" width="200%" height="200%" x="-50%" y="-50%" filterUnits="objectBoundingBox">
      <feOffset dy="6" in="SourceAlpha" result="shadowOffsetOuter1"/>
      <feGaussianBlur stdDeviation="4" in="shadowOffsetOuter1" result="shadowBlurOuter1"/>
      <feComposite in="shadowBlurOuter1" in2="SourceAlpha" operator="out" result="shadowBlurOuter1"/>
      <feColorMatrix values="0 0 0 0 0.644185799 0 0 0 0 0.644185799 0 0 0 0 0.644185799 0 0 0 0.213824728 0" in="shadowBlurOuter1"/>
    </filter>
    <mask id="m" width="164" height="130.891" x="0" y="0" fill="#fff">
      <use xlink:href="#d"/>
    </mask>
    <path id="e" d="M904.84 47h23v14h-23z"/>
    <mask id="n" width="23" height="14" x="0" y="0" fill="#fff">
      <use xlink:href="#e"/>
    </mask>
  </defs>
  <g fill="none" fill-rule="evenodd">
    <circle cx="190.839" cy="161" r="2" fill="#0674AC"/>
    <path stroke="#0674AC" d="M191.555 161H717.38M706.84 161h61.018V69.466h89.07" stroke-linecap="square" stroke-linejoin="round"/>
    <use fill="#000" filter="url(#f)" xlink:href="#a"/>
    <use fill="#FFF" stroke="#F9F9F9" stroke-width="2" mask="url(#g)" stroke-linecap="square" xlink:href="#a"/>
    <path fill="#555" d="M326.983 191l-3.146-8.723h-.975l-3.12 8.723h.845l.78-2.223h3.965l.78 2.223h.87zm-1.885-2.925h-3.536l1.768-5.018h.026l1.742 5.018zm8.242-5.03v-.716h-5.72v.714h2.444V191h.82v-7.956h2.456zm3.796 8.098c1.066 0 1.716-.39 2.184-.832l.507.69h.87l-.857-1.196c.312-.43.416-1.014.416-1.573 0-.48-.09-1.104-.182-1.43h-.74c.09.313.22.885.22 1.43 0 .39-.078.78-.195 1.04l-2.198-3.08c1-.598 1.872-1.17 1.872-2.314 0-.637-.39-1.69-1.898-1.69-1.404 0-2.002.897-2.002 1.78 0 .78.56 1.496 1.053 2.08-.95.573-1.898 1.3-1.898 2.562 0 1.183.7 2.535 2.846 2.535zm0-.598c-1.157 0-2.067-.598-2.067-1.95 0-.936.727-1.56 1.468-2.067l2.38 3.276c-.404.43-1.054.74-1.782.74zm-.286-4.784c-.364-.454-.95-1.195-.95-1.82 0-.65.365-1.182 1.236-1.182.95 0 1.183.74 1.183 1.17 0 .754-.547 1.248-1.47 1.833zm10.192-2.716v-.715h-5.72v.714h2.444V191h.82v-7.956h2.456zm11.61 7.956v-8.67h-.807v7.24h-.052l-4.77-7.24h-.872V191h.807v-7.28h.052l4.835 7.28h.806zm7.344-3.51c0-1.86-.91-3.185-2.548-3.185-1.885 0-2.847 1.404-2.847 3.432 0 2.093.976 3.406 2.874 3.406.78 0 1.52-.208 2.262-.793l-.3-.56c-.714.573-1.325.742-1.936.742-1.39 0-2.12-1-2.12-2.548h4.603c.013-.117.013-.416.013-.494zm-.74-.078h-3.862c0-1.157.442-2.522 2.054-2.522 1.3 0 1.807 1.26 1.807 2.522zm5.212 3.6v-.623h-.48c-1.04 0-1.106-.326-1.106-1.028v-4.238h1.586v-.65h-1.586v-1.82h-.767v1.82h-1.092v.65h1.092v4.368c0 .95.195 1.573 1.65 1.573.248 0 .534-.026.703-.052zm9.53-6.538h-.78l-1.522 5.824h-.052l-1.625-5.824h-.664l-1.612 5.837h-.052l-1.508-5.836h-.793l1.82 6.526h.924l1.534-5.343h.052l1.495 5.343h.95l1.832-6.526zm1.13 3.276c0 1.872.845 3.393 2.873 3.393 2.042 0 2.887-1.52 2.887-3.393 0-1.937-.87-3.445-2.886-3.445-2.066 0-2.872 1.56-2.872 3.445zm.806-.013c0-1.443.43-2.808 2.067-2.808 1.652 0 2.08 1.364 2.08 2.807 0 1.43-.44 2.795-2.066 2.795-1.65 0-2.08-1.365-2.08-2.795zm9.854-2.73v-.69h-.286c-.897 0-1.65.274-2.054.963h-.013l-.078-.806h-.65V191h.767v-4.33c0-1.182.793-1.663 2.093-1.663h.22zm6.175 5.993l-2.34-3.965 2.12-2.56h-.99l-2.78 3.444h-.04v-6.02h-.767v9.1h.767v-2.106l1.13-1.326 1.964 3.432h.936z"/>
    <use fill="#000" filter="url(#h)" xlink:href="#b"/>
    <use fill="#FFF" stroke="#F9F9F9" stroke-width="2" mask="url(#i)" stroke-linecap="square" xlink:href="#b"/>
    <path fill="#8F90C5" d="M606.266 179.676v-1.648h-10.952v19.986h1.9v-9.77h8.147V186.6h-8.145v-6.922h9.05zm7.62 18.338v-1.468h-.662c-1.298 0-1.78-.03-1.78-1.738v-17.77h-1.78v18.25c0 2.187.844 2.876 2.715 2.876.505-.01 1.01-.06 1.507-.15zm1.976-7.49c0 4.314 1.96 7.82 6.668 7.82 4.736 0 6.697-3.506 6.697-7.82 0-4.465-2.02-7.94-6.697-7.94-4.798 0-6.668 3.594-6.668 7.94zm1.87-.03c0-3.327.996-6.473 4.798-6.473 3.83 0 4.827 3.147 4.827 6.473 0 3.296-1.026 6.442-4.797 6.442-3.83 0-4.828-3.146-4.828-6.442zm33.582-7.522h-1.81l-3.53 13.424h-.12l-3.77-13.424h-1.54l-3.74 13.454h-.122l-3.5-13.454h-1.84l4.224 15.042h2.142l3.56-12.315h.12l3.47 12.314h2.202l4.254-15.042z"/>
    <path stroke="#0674AC" d="M767.84 161v90.5h77.025" stroke-linecap="square" stroke-linejoin="round"/>
    <use fill="#000" filter="url(#j)" xlink:href="#c"/>
    <use fill="#FFF" stroke="#F9F9F9" stroke-width="2" mask="url(#k)" stroke-linecap="square" xlink:href="#c"/>
    <path fill="#067AB4" d="M895.84 39.512V69h41V39.512h-41zm38.204 26.724h-35.41v-23.96h35.41v23.96zM900.092 37.61h32.494c.79 0 1.393-.62 1.393-1.427 0-.81-.605-1.427-1.394-1.427h-32.494c-.79 0-1.392.618-1.392 1.427 0 .808.603 1.427 1.392 1.427zM904.846 32.854h22.986c.782 0 1.38-.62 1.38-1.427 0-.81-.598-1.427-1.38-1.427h-22.986c-.78 0-1.38.618-1.38 1.427 0 .808.6 1.427 1.38 1.427z"/>
    <path fill="#1EA3D4" d="M939.44 96.07l6.532-10.335h-5.14l-3.555 6.23-3.672-6.23h-5.168l6.62 10.216-7.487 11.633h5.08l4.395-7.735 4.626 7.735h5.17l-7.4-11.514zm-21.15 7.638l4.813-3.986c2.44-2.022 4.588-4.31 4.588-7.495 0-4.044-3.464-7.227-7.827-7.227-4.364 0-7.29 3.274-7.797 7.287-.288 1.68 0 2.958.032 3.197h4.102c-.54-2.637.165-4.178.583-4.952.61-1.1 1.86-1.784 3.176-1.784 2.084 0 3.464 1.398 3.464 3.3 0 1.815-1.284 3.183-2.63 4.343l-8.47 7.318v3.88h13.065l2.67-3.88h-9.77zm-19.123-3.95h-.053l-3.873-14.75h-6.4v22.545l4.776.025-.35-16.936.052-.06 4.163 16.838h3.294l4.163-16.838.053.06.37 16.936 4.056-.025V85.01h-6.43l-3.82 14.748z"/>
    <use fill="#000" filter="url(#l)" xlink:href="#d"/>
    <use fill="#FFF" stroke="#F9F9F9" stroke-width="2" mask="url(#m)" stroke-linecap="square" xlink:href="#d"/>
    <path fill="#555" d="M899.307 273.012l-.455-.572c-.78.715-1.625 1.014-2.418 1.014-2.3 0-2.912-1.963-2.912-3.796 0-2.56 1.21-3.783 2.95-3.783.833 0 1.496.286 2.276.95l.494-.573c-.897-.728-1.742-1.066-2.782-1.066-2.77 0-3.796 2.236-3.796 4.472 0 2.808 1.287 4.485 3.705 4.485 1.09 0 2-.312 2.937-1.13zm6.396.988v-6.526h-.767v4.082c0 1.144-.494 1.924-1.82 1.924-1.378 0-1.534-.884-1.534-2.574v-3.432h-.767v4.004c0 2.145.767 2.665 2.12 2.665 1.104 0 1.702-.468 2-1h.027l.104.857h.637zm6.045-1.768c0-1.222-.988-1.638-1.924-1.937-.87-.273-1.638-.533-1.638-1.274 0-.805.663-1.09 1.43-1.09.624 0 1.274.233 1.703.493l.233-.624c-.598-.3-1.248-.495-1.95-.495-1.027 0-2.158.43-2.158 1.677 0 1.21.95 1.6 2.002 1.95.78.26 1.56.507 1.56 1.352 0 .884-.663 1.248-1.43 1.248-.663 0-1.443-.26-2.002-.637l-.3.61c.69.417 1.405.638 2.302.638 1.17 0 2.17-.56 2.17-1.91zm4.355 1.78v-.623h-.48c-1.04 0-1.106-.326-1.106-1.028v-4.238h1.586v-.65h-1.586v-1.82h-.767v1.82h-1.092v.65h1.092v4.368c0 .95.195 1.573 1.65 1.573.248 0 .534-.026.703-.052zm1.3-3.262c0 1.872.845 3.393 2.873 3.393 2.04 0 2.886-1.52 2.886-3.393 0-1.937-.87-3.445-2.886-3.445-2.067 0-2.873 1.56-2.873 3.445zm.806-.013c0-1.443.428-2.808 2.066-2.808 1.65 0 2.08 1.364 2.08 2.807 0 1.43-.442 2.795-2.067 2.795-1.652 0-2.08-1.365-2.08-2.795zM933.535 274v-4.147c0-1.547-.43-2.548-2.17-2.548-.833 0-1.56.312-1.964 1.08-.3-.794-1-1.08-1.82-1.08-.78 0-1.443.338-1.82 1.014h-.026l-.09-.846h-.664V274h.767v-4.277c0-.897.597-1.742 1.663-1.742 1.26 0 1.47.755 1.47 1.886V274h.766v-4.33c0-1.104.57-1.69 1.702-1.69 1.287 0 1.417.872 1.417 1.95V274h.766zm7.215-3.51c0-1.86-.91-3.185-2.547-3.185-1.885 0-2.847 1.404-2.847 3.432 0 2.093.975 3.406 2.873 3.406.78 0 1.52-.208 2.26-.793l-.298-.56c-.715.573-1.326.742-1.937.742-1.39 0-2.12-1-2.12-2.548h4.603c.013-.117.013-.416.013-.494zm-.74-.078h-3.86c0-1.157.44-2.522 2.053-2.522 1.3 0 1.807 1.26 1.807 2.522zm5.59-2.405v-.69h-.286c-.897 0-1.65.274-2.054.963h-.013l-.078-.806h-.65V274h.766v-4.33c0-1.182.793-1.663 2.093-1.663h.22zm-52.845 18.6c0-2.588-1.274-4.382-3.926-4.382-.95 0-1.795.065-2.432.143V291h2.47c2.99 0 3.887-2.25 3.887-4.394zm-.858 0c0 2.495-1.04 3.704-3.276 3.704h-1.403v-7.318c.494-.052 1.066-.09 1.625-.09 2.483 0 3.055 2.053 3.055 3.704zm7.657 3.886c-.247-.09-.338-.325-.338-.637v-3.55c0-1.416-.702-2-2.054-2-1 0-1.833.337-2.665.818l.3.585c.558-.378 1.39-.78 2.3-.78.87 0 1.287.337 1.34 1.13v.754c-1.652 0-4.148.182-4.148 2.38 0 1.22.87 1.95 2.014 1.95.832 0 1.573-.352 2.21-.885h.013c.052.467.22.662.598.818l.43-.585zm-1.105-.767c-.625.48-1.197.858-2.003.858-.793 0-1.378-.637-1.378-1.417 0-1.73 2.17-1.82 3.38-1.82v2.38zm5.615 1.287v-.624h-.48c-1.04 0-1.106-.326-1.106-1.028v-4.238h1.585v-.65h-1.586v-1.82h-.768v1.82h-1.092v.65h1.092v4.368c0 .95.195 1.573 1.65 1.573.248 0 .534-.026.703-.052zm6.448-.52c-.247-.09-.338-.325-.338-.637v-3.55c0-1.416-.702-2-2.054-2-1 0-1.832.337-2.664.818l.3.585c.558-.378 1.39-.78 2.3-.78.87 0 1.287.337 1.34 1.13v.754c-1.652 0-4.148.182-4.148 2.38 0 1.22.87 1.95 2.015 1.95.832 0 1.573-.352 2.21-.885h.013c.052.467.22.662.598.818l.43-.585zm-1.105-.767c-.624.48-1.196.858-2.002.858-.793 0-1.378-.637-1.378-1.417 0-1.73 2.17-1.82 3.38-1.82v2.38zm13.026.286l-.455-.572c-.78.715-1.626 1.014-2.42 1.014-2.3 0-2.91-1.963-2.91-3.796 0-2.56 1.208-3.783 2.95-3.783.832 0 1.495.286 2.275.95l.494-.573c-.898-.728-1.743-1.066-2.783-1.066-2.77 0-3.796 2.236-3.796 4.472 0 2.808 1.288 4.485 3.706 4.485 1.092 0 2.002-.312 2.938-1.13zm6.59-2.522c0-1.86-.91-3.185-2.547-3.185-1.885 0-2.847 1.404-2.847 3.432 0 2.093.975 3.406 2.873 3.406.78 0 1.52-.208 2.262-.793l-.3-.56c-.714.573-1.325.742-1.936.742-1.392 0-2.12-1-2.12-2.548h4.602c.013-.117.013-.416.013-.494zm-.74-.078h-3.86c0-1.157.44-2.522 2.053-2.522 1.3 0 1.807 1.26 1.807 2.522zm7.5 3.588v-4.147c0-1.612-.376-2.548-2.196-2.548-.923 0-1.612.35-2.028 1.014h-.026l-.078-.846h-.663V291h.767v-4.2c0-1.117.663-1.82 1.885-1.82 1.43 0 1.573.833 1.573 2.107V291h.767zm4.837.013v-.624h-.48c-1.04 0-1.105-.326-1.105-1.028v-4.238h1.586v-.65h-1.585v-1.82h-.767v1.82h-1.092v.65h1.092v4.368c0 .95.195 1.573 1.65 1.573.248 0 .534-.026.703-.052zm6.696-3.523c0-1.86-.91-3.185-2.548-3.185-1.885 0-2.847 1.404-2.847 3.432 0 2.093.976 3.406 2.874 3.406.78 0 1.52-.208 2.262-.793l-.3-.56c-.714.573-1.325.742-1.936.742-1.39 0-2.12-1-2.12-2.548h4.603c.013-.117.013-.416.013-.494zm-.74-.078h-3.862c0-1.157.442-2.522 2.054-2.522 1.3 0 1.807 1.26 1.807 2.522zm5.59-2.405v-.69h-.287c-.898 0-1.652.274-2.055.963h-.013l-.078-.806h-.65V291h.767v-4.33c0-1.182.794-1.663 2.094-1.663h.22z"/>
    <path fill="#067AB4" d="M904.817 209.576c-.44 0-.796.356-.796.796v6.363c0 .44.357.796.797.796h12.727v3.183h-12.727c-.44 0-.796.356-.796.795v6.364c0 .44.357.795.797.795h12.727v3.182h-12.727c-.44 0-.796.355-.796.794v6.364c0 .44.357.795.797.796h12.727v2.386h-2.408c-.44 0-.796.356-.796.795v2.558h-13.5v1.59h13.5v2.216c0 .438.357.794.796.794h6.363c.44 0 .795-.356.795-.795v-2.217h13.544v-1.59h-13.545v-2.558c0-.44-.356-.795-.796-.795h-2.365v-2.386h12.727c.44 0 .796-.357.796-.796v-6.364c0-.44-.357-.795-.796-.795h-12.727v-3.183h12.727c.44 0 .796-.356.796-.795v-6.364c0-.44-.357-.795-.796-.795h-12.727v-3.182h12.727c.44 0 .796-.355.796-.795v-6.363c0-.44-.357-.796-.796-.796h-27.045zm.795 1.59h25.455v4.774h-25.455v-4.773zm2.386 1.592c-.44 0-.795.356-.795.796 0 .44.356.795.795.795.44 0 .796-.357.796-.796 0-.44-.356-.796-.796-.796zm3.182 0c-.44 0-.795.356-.795.796 0 .44.356.795.795.795.44 0 .796-.357.796-.796 0-.44-.356-.796-.796-.796zm3.182 0c-.44 0-.795.356-.795.796 0 .44.356.795.795.795.44 0 .796-.357.796-.796 0-.44-.357-.796-.796-.796zm3.182 0c-.44 0-.796.356-.796.796 0 .44.357.795.796.795.44 0 .795-.357.795-.796 0-.44-.357-.796-.796-.796zm3.182 0c-.44 0-.796.356-.796.796 0 .44.356.795.796.795.44 0 .795-.357.795-.796 0-.44-.355-.796-.794-.796zm-15.114 9.546h25.455v4.772h-25.455v-4.772zm2.386 1.59c-.44 0-.795.357-.795.796 0 .44.356.795.795.795.44 0 .796-.356.796-.795 0-.44-.356-.796-.796-.796zm3.182 0c-.44 0-.795.357-.795.796 0 .44.356.795.795.795.44 0 .796-.356.796-.795 0-.44-.356-.796-.796-.796zm3.182 0c-.44 0-.795.357-.795.796 0 .44.356.795.795.795.44 0 .796-.356.796-.795 0-.44-.357-.796-.796-.796zm3.182 0c-.44 0-.796.357-.796.796 0 .44.357.795.796.795.44 0 .795-.356.795-.795 0-.44-.357-.796-.796-.796zm3.182 0c-.44 0-.796.357-.796.796 0 .44.356.795.796.795.44 0 .795-.356.795-.795 0-.44-.355-.796-.794-.796zm-15.114 9.546h25.455v4.773h-25.455v-4.773zm2.386 1.59c-.44 0-.795.357-.795.796 0 .44.356.796.795.796.44 0 .796-.356.796-.796 0-.44-.356-.795-.796-.795zm3.182 0c-.44 0-.795.357-.795.796 0 .44.356.796.795.796.44 0 .796-.356.796-.796 0-.44-.356-.795-.796-.795zm3.182 0c-.44 0-.795.357-.795.796 0 .44.356.796.795.796.44 0 .796-.356.796-.796 0-.44-.357-.795-.796-.795zm3.182 0c-.44 0-.796.357-.796.796 0 .44.357.796.796.796.44 0 .795-.356.795-.796 0-.44-.357-.795-.796-.795zm3.182 0c-.44 0-.796.357-.796.796 0 .44.356.796.796.796.44 0 .795-.356.795-.796 0-.44-.355-.795-.794-.795zm-4.795 8.75h4.774v4.774h-4.773v-4.773z"/>
    <use stroke="#067AB4" stroke-width="4" mask="url(#n)" xlink:href="#e"/>
    <circle cx="909.839" cy="52" r="1" fill="#067AB4"/>
    <circle cx="912.839" cy="52" r="1" fill="#067AB4"/>
    <circle cx="915.839" cy="52" r="1" fill="#067AB4"/>
    <path stroke="#067AB4" stroke-width="2" d="M905.34 51h-2M905.34 54h-2M905.34 57h-2M929.34 51h-2M929.34 54h-2M929.34 57h-2" stroke-linecap="square"/>
    <path fill="#067AB4" d="M154.894 128.03c0-1.866-1.425-3.29-3.29-3.29h-50.992c-1.864 0-3.29 1.424-3.29 3.29v50.99c0 1.865 1.426 3.29 3.29 3.29v-16.45l.33-8.443h1.754l-1.206 9.76V189.547c0 1.646 1.316 3.07 3.07 3.07v2.962c0 1.644 1.206 3.07 2.742 3.18 1.864.22 3.4-1.317 3.4-3.07v-3.072h30.814v2.96c0 1.646 1.206 3.072 2.74 3.18 1.865.22 3.4-1.315 3.4-3.07v-3.07c1.645 0 3.07-1.315 3.07-2.96l.11-22.152v-.22l-1.206-9.76 1.207-.11c.11 0 .22.11.33.11h.218l.33 8.445v16.45c1.863 0 3.29-1.426 3.29-3.29l-.11-51.1zm-47.263 52.197c-1.754 0-3.07-1.426-3.07-3.07 0-1.646 1.426-3.07 3.07-3.07 1.645 0 3.07 1.424 3.07 3.07 0 1.644-1.315 3.07-3.07 3.07zm30.815 6.25h-24.673v-1.206h24.673v1.207zm0-3.18h-24.673v-1.206h24.673v1.207zm0-3.07h-24.673v-1.206h24.673v1.207zm-32.68-12.94c-.657 0-1.205-.548-1.205-1.206l1.097-18.532c.11-.987.877-1.864 1.974-1.864h37.066c.987 0 1.864.767 1.974 1.864l1.096 18.533c0 .66-.438 1.207-1.206 1.207h-40.794zm38.93 12.94c-1.754 0-3.07-1.426-3.07-3.07 0-1.646 1.426-3.07 3.07-3.07 1.646 0 3.07 1.424 3.07 3.07 0 1.644-1.424 3.07-3.07 3.07zm6.47-24.674c-.11 0-.22 0-.328.11l-1.207-.11-.438-8.553c-.11-2.084-1.864-3.73-3.948-3.73h-38.162c-2.083 0-3.838 1.646-3.947 3.73l-.44 8.663H101.052l.44-14.366h49.347l.438 14.366h-.11v-.11zM90.362 134.943c0-1.482-1.134-2.615-2.616-2.615H47.208c-1.482 0-2.616 1.133-2.616 2.615v40.54c0 1.48 1.134 2.614 2.616 2.614V165.02l.26-6.712h1.396l-.96 7.76V183.85c0 1.31 1.047 2.442 2.442 2.442v2.354c0 1.308.96 2.44 2.18 2.528 1.482.175 2.702-1.046 2.702-2.44v-2.442h24.498v2.354c0 1.308.96 2.44 2.18 2.528 1.48.175 2.702-1.046 2.702-2.44v-2.442c1.307 0 2.44-1.046 2.44-2.354l.088-17.61v-.174l-.96-7.76.96-.086c.087 0 .174.087.262.087h.174l.26 6.713v13.077c1.483 0 2.617-1.134 2.617-2.616l-.088-40.627zM52.787 176.44c-1.395 0-2.44-1.132-2.44-2.44s1.132-2.44 2.44-2.44 2.44 1.132 2.44 2.44-1.045 2.44-2.44 2.44zm24.498 4.97H57.67v-.96h19.615v.96zm0-2.528H57.67v-.96h19.615v.96zm0-2.44H57.67v-.96h19.615v.96zm-25.98-10.288c-.523 0-.96-.436-.96-.96l.873-14.733c.087-.783.697-1.48 1.57-1.48h29.466c.785 0 1.482.61 1.57 1.48l.87 14.735c0 .523-.348.96-.958.96h-32.43zm30.95 10.287c-1.396 0-2.442-1.132-2.442-2.44s1.133-2.44 2.44-2.44c1.31 0 2.442 1.132 2.442 2.44s-1.133 2.44-2.44 2.44zm5.143-19.614c-.088 0-.175 0-.262.087l-.96-.087-.348-6.8c-.087-1.657-1.482-2.965-3.138-2.965H52.35c-1.655 0-3.05 1.31-3.137 2.966l-.35 6.887h-1.307l.35-11.42h39.23l.35 11.42h-.088v-.087zM36.99 140.087c0-1.197-.916-2.113-2.114-2.113H2.114c-1.198 0-2.114.916-2.114 2.113v32.763c0 1.198.916 2.113 2.114 2.113v-10.568l.21-5.425h1.128l-.775 6.27v14.374c0 1.056.846 1.972 1.973 1.972v1.903c0 1.056.775 1.97 1.762 2.042 1.197.14 2.184-.846 2.184-1.973v-1.974h19.798v1.903c0 1.056.775 1.97 1.76 2.042 1.2.14 2.186-.846 2.186-1.973v-1.974c1.056 0 1.972-.845 1.972-1.902l.07-14.232v-.14l-.774-6.272.775-.07c.07 0 .14.07.21.07h.142l.212 5.425v10.57c1.197 0 2.113-.917 2.113-2.115l-.07-32.833zM6.623 173.625c-1.127 0-1.973-.916-1.973-1.973s.916-1.973 1.973-1.973 1.973.915 1.973 1.972-.846 1.973-1.973 1.973zm19.798 4.016H10.57v-.774h15.85v.775zm0-2.042H10.57v-.775h15.85v.775zm0-1.973H10.57v-.775h15.85v.775zM5.426 165.31c-.423 0-.775-.35-.775-.774l.705-11.907c.07-.635.563-1.2 1.268-1.2h23.814c.634 0 1.198.494 1.27 1.2l.703 11.906c0 .423-.282.775-.775.775H5.425zm25.012 8.315c-1.127 0-1.973-.916-1.973-1.973s.916-1.973 1.973-1.973 1.973.915 1.973 1.972-.916 1.973-1.973 1.973zm4.157-15.853c-.07 0-.14 0-.21.07l-.776-.07-.282-5.496c-.07-1.338-1.198-2.395-2.536-2.395H6.27c-1.338 0-2.465 1.058-2.536 2.396l-.282 5.566H2.396l.28-9.23h31.707l.282 9.23h-.07v-.07zM631.338 164c-2.69 0-4.923-1.94-5.398-4.493-.06-.328-.1-.663-.1-1.007 0-.344.04-.68.1-1.007.2-1.073.71-2.036 1.44-2.795 1-1.04 2.4-1.698 3.958-1.698 3.034 0 5.5 2.467 5.5 5.5s-2.466 5.5-5.5 5.5zm-14.5-5.5c0 .344-.04.68-.1 1.007-.475 2.552-2.71 4.493-5.397 4.493-3.032 0-5.5-2.467-5.5-5.5s2.468-5.5 5.5-5.5c1.194 0 2.29.39 3.19 1.04.277.197.533.414.77.658.232.243.446.505.63.79.396.597.672 1.276.81 2.005.06.328.1.663.1 1.007zm9-19c0-.344.042-.68.102-1.007.475-2.552 2.71-4.493 5.398-4.493 3.034 0 5.5 2.467 5.5 5.5s-2.466 5.5-5.5 5.5c-1.192 0-2.29-.39-3.19-1.04-.276-.197-.534-.414-.768-.658-.233-.243-.447-.505-.634-.79-.393-.597-.67-1.276-.806-2.005-.06-.328-.1-.663-.1-1.007zm-9 0c0 .344-.04.68-.1 1.007-.2 1.073-.712 2.036-1.44 2.795-1 1.04-2.402 1.698-3.957 1.698-3.032 0-5.5-2.467-5.5-5.5s2.468-5.5 5.5-5.5c2.688 0 4.923 1.94 5.4 4.493.06.328.1.663.1 1.007zm14.39 11.372c-2.153 0-4.09.902-5.48 2.336-1.088 1.13-1.806 2.59-2.03 4.214h-4.756c-.176-1.27-.65-2.438-1.382-3.43l4.497-4.29 4.444-4.24c1.3 1.025 2.922 1.666 4.707 1.666 4.2 0 7.612-3.394 7.612-7.564S635.425 132 631.226 132c-3.845 0-7.004 2.863-7.508 6.55h-4.758c-.506-3.687-3.663-6.55-7.51-6.55-4.197 0-7.613 3.394-7.613 7.564s3.415 7.564 7.613 7.564c2.153 0 4.09-.902 5.476-2.336 1.09-1.13 1.81-2.59 2.032-4.214h4.757c.173 1.27.65 2.438 1.378 3.43l-4.494 4.29-4.446 4.24c-1.3-1.025-2.92-1.666-4.705-1.666-4.198 0-7.614 3.394-7.614 7.564s3.415 7.564 7.613 7.564c3.846 0 7.003-2.863 7.51-6.55h4.756c.503 3.687 3.662 6.55 7.507 6.55 4.2 0 7.612-3.394 7.612-7.564s-3.414-7.564-7.613-7.564z"/>
    <g fill="#058EC2" stroke="#008BC0">
      <path d="M357.604 175.368c.28-.153.558-.33.838-.537 2.497-1.843 4.714-5.647 6.423-10.12.843.05 1.67.08 2.475.08 1.73 0 3.365-.12 4.86-.36.752-.12 1.45-.273 2.1-.45.09 2.934-.704 5.376-2.47 6.864-3.483 2.86-7.935 4.582-12.78 4.582-.488 0-.968-.025-1.446-.058m-15.994-10.003c.288.04.6.062.936.062 2.43 0 5.938-1.012 8.435-1.85.562.966 1.598 1.626 2.795 1.626 1.23 0 2.29-.698 2.84-1.712.195.047.39.092.587.135 2.254.494 4.475.813 6.613.994-1.698 4.317-3.822 7.78-5.987 9.378-1.11.82-2.196 1.128-3.23.925-5.534-1.252-10.21-4.784-12.988-9.558m-2.68-11.547c1.15 2.085 3.728 4.224 7.472 6.1.074.037.153.055.232.055.19 0 .37-.107.462-.288.128-.255.025-.567-.23-.694-4.958-2.48-7.804-5.445-7.567-7.824.97-4.69 3.59-8.948 7.43-11.917.445.532 1.105.878 1.852.878 1.198 0 2.19-.875 2.386-2.02 4.524.062 10.146 3.165 14.88 8.226-.246.38-.395.834-.395 1.32 0 1.12.766 2.056 1.796 2.336-.16 1.818-.43 3.654-.784 5.463-1.838 1.04-3.81 2.07-5.855 3.048-1.35.647-2.707 1.256-4.045 1.826-.564-.964-1.595-1.618-2.79-1.618-1.79 0-3.244 1.457-3.244 3.248 0 .225.024.443.067.655-6.528 2.19-9.4 2.015-9.742 1.34-1.27-2.64-1.98-5.598-1.98-8.72 0-.473.02-.944.054-1.412m9.652-17.512c.768 0 1.393.626 1.393 1.393s-.625 1.393-1.393 1.393c-.767 0-1.39-.626-1.39-1.394 0-.768.623-1.394 1.39-1.394m13.697-1.01c4.13.684 4.99 6.377 5.117 9.98-.294.06-.566.177-.81.333-4.94-5.273-10.887-8.504-15.67-8.536-.026-.097-.05-.192-.085-.283 2.588-1.16 5.35-1.754 8.217-1.754 1.1 0 2.176.09 3.23.26m14.976 11.24c.167.415-.38 1.735-3.48 4.16-.654.515-1.398 1.05-2.19 1.59-.58-.992-1.236-1.984-1.948-2.967.41-.436.668-1.02.668-1.665 0-1.15-.803-2.108-1.876-2.36-.138-4.155-1.053-7.248-2.646-9.1 5.05 1.796 9.178 5.546 11.472 10.34m-8.972 3.508c.174-.03.342-.073.5-.138.71.98 1.36 1.97 1.936 2.963-.962.63-1.996 1.273-3.094 1.917.3-1.626.523-3.222.658-4.742m-.405-3.78c.77 0 1.39.625 1.39 1.392 0 .768-.62 1.394-1.39 1.394-.768 0-1.392-.627-1.392-1.395 0-.767.624-1.393 1.39-1.393m-.52 9.875c1.38-.787 2.678-1.58 3.863-2.356 1.717 3.187 2.738 6.346 3.013 9.142-.67.194-1.402.358-2.2.486-2.03.326-4.33.42-6.792.287.867-2.423 1.586-5.005 2.12-7.558m-10.412 5.152c1.36-.58 2.74-1.2 4.108-1.854 1.775-.85 3.498-1.74 5.127-2.638-.53 2.38-1.205 4.69-1.987 6.82-2.18-.168-4.457-.498-6.773-1.004-.155-.034-.306-.07-.46-.105.03-.182.056-.365.056-.554 0-.23-.026-.452-.072-.667m-5.383.666c0-1.22.99-2.213 2.21-2.213s2.21.992 2.21 2.213c0 1.22-.99 2.212-2.21 2.212s-2.21-.993-2.21-2.212m27.218-2.527c-.007.018-.02.033-.025.054-.278 1.277-1.51 2.347-3.487 3.097-.322-2.895-1.398-6.12-3.18-9.38.845-.575 1.628-1.14 2.324-1.687 1.745-1.365 2.9-2.524 3.477-3.494.86 2.24 1.335 4.67 1.335 7.21 0 1.44-.155 2.844-.442 4.2m-3.806 8.173c.327-1.196.458-2.525.39-3.954 1.017-.36 1.878-.798 2.562-1.308-.72 1.907-1.72 3.677-2.953 5.26m5.282-12.37c0-3.266-.742-6.36-2.062-9.123-.005-.014-.008-.027-.014-.04l-.008-.01c-2.955-6.15-8.78-10.66-15.73-11.785l-.02-.004h-.004c-1.1-.176-2.225-.27-3.373-.27-3.083 0-6.046.652-8.82 1.926-.433-.403-1.01-.656-1.648-.656-1.337 0-2.426 1.09-2.426 2.43 0 .213.036.416.09.614-4 3.036-6.766 7.396-7.87 12.215-.017.035-.04.067-.047.107-.027.12-.038.24-.052.36-.283 1.384-.44 2.8-.44 4.234 0 3.273.746 6.376 2.073 9.15.004.002.003.006.006.01.002.006.006.01.008.015 2.753 5.727 8.005 10.03 14.325 11.5l.03.014c.035.007.07.01.107.018 1.502.34 3.06.524 4.662.524 5.026 0 9.65-1.764 13.288-4.7.022-.015.048-.022.066-.04.033-.024.057-.058.09-.084 4.737-3.897 7.765-9.805 7.765-16.407"/>
    </g>
  </g>
</svg>
